<svg width="138" height="145" viewBox="0 0 138 145" fill="none" xmlns="http://www.w3.org/2000/svg">
<path d="M73.0641 94.6221C68.6641 111.022 56.2308 112.122 50.5641 110.622C48.5641 105.622 47.0639 108.122 45.0639 107.122C38.5639 91.1221 47.0641 86.0172 52.564 81.5172C32.564 81.0172 30.564 66.5172 31.064 64.5172C31.564 62.5172 36.5639 61.6221 32.5639 58.1221C39.7639 48.1221 53.8333 51.6839 59.9999 55.0173C54.9999 35.0173 69.0641 30.1221 70.0641 31.1221C71.2308 32.6221 72.5641 34.1221 76.0641 31.1221C90.4641 37.9221 87.0641 52.6221 83.5641 59.1221C84.5641 57.7888 87.4641 54.8221 91.0641 53.6221C106.064 48.6221 114.064 56.6221 113.064 58.1221C112.264 59.3221 112.064 60.9554 112.064 61.6221C112.064 62.8221 115.064 63.6221 115.064 63.6221C115.864 76.0221 101.064 81.1221 93.6728 80.6645C97.663 82.2842 103.069 91.1627 103.564 95.6221C104.108 100.516 102.564 107.622 100.564 107.122C98.9641 106.722 97.5641 106.955 97.0641 107.122C96.7308 107.122 96.0641 107.822 96.0641 110.622C93.5641 113.622 76.5641 110.622 73.0641 94.6221Z" fill="#FFE1F5"/>
<path d="M93.5641 80.6221C93.6002 80.6356 93.6365 80.6498 93.6728 80.6645M93.6728 80.6645C97.663 82.2842 103.069 91.1627 103.564 95.6221C104.108 100.516 102.564 107.622 100.564 107.122C98.9641 106.722 97.5641 106.955 97.0641 107.122C96.7308 107.122 96.0641 107.822 96.0641 110.622C93.5641 113.622 76.5641 110.622 73.0641 94.6221C68.6641 111.022 56.2308 112.122 50.5641 110.622C48.5641 105.622 47.0639 108.122 45.0639 107.122C38.5639 91.1221 47.0641 86.0172 52.564 81.5172C32.564 81.0172 30.564 66.5172 31.064 64.5172C31.564 62.5172 36.5639 61.6221 32.5639 58.1221C39.7639 48.1221 53.8333 51.6839 59.9999 55.0173C54.9999 35.0173 69.0641 30.1221 70.0641 31.1221C71.2308 32.6221 72.5641 34.1221 76.0641 31.1221C90.4641 37.9221 87.0641 52.6221 83.5641 59.1221C84.5641 57.7888 87.4641 54.8221 91.0641 53.6221C106.064 48.6221 114.064 56.6221 113.064 58.1221C112.264 59.3221 112.064 60.9554 112.064 61.6221C112.064 62.8221 115.064 63.6221 115.064 63.6221C115.864 76.0221 101.064 81.1221 93.6728 80.6645Z" stroke="black"/>
<path d="M71.2896 74C52.2433 79.1344 47.8305 93.2538 48.0049 99.6718C49.313 86.8359 67.3653 76.5114 66.0571 79.5808C65.0106 82.0364 61.2606 87.673 59.5165 90.1844C61.0862 89.7193 65.3246 86.9475 69.7199 79.5808C72.0745 86.5568 56.363 105.811 58.7316 104.974C61.1002 104.136 75.4757 92.6957 71.2896 74Z" fill="#FFF0FA"/>
<path d="M70.0036 70.9488C58.7955 54.716 44.0132 55.279 38.0231 57.5897C50.5574 54.53 66.3245 68.0902 62.9943 67.8838C60.3301 67.7187 53.764 66.0696 50.8139 65.2657C51.7772 66.5896 55.8068 69.657 64.2192 71.3357C58.4322 75.8877 35.0327 67.5194 36.6138 69.4718C38.1948 71.4241 53.7841 81.1459 70.0036 70.9488Z" fill="#FFF0FA"/>
<path d="M72.9607 70.6453C86.3288 56.1394 82.5262 41.8435 78.9539 36.5088C84.6972 48.0624 74.9395 66.4272 74.4079 63.1333C73.9826 60.4981 74.1461 53.73 74.2811 50.6754C73.2017 51.9064 71.0964 56.5122 71.3102 65.0878C65.5963 60.4446 68.6095 35.7771 67.053 37.749C65.4965 39.721 59.444 57.0677 72.9607 70.6453Z" fill="#FFF0FA"/>
<path d="M75.314 70.8641C91.5854 82.0161 105.189 76.2047 109.957 71.905C99.3453 79.2442 79.772 72.2182 82.9558 71.2201C85.5029 70.4217 92.2246 69.614 95.267 69.3099C93.8941 68.418 89.0342 66.9942 80.5776 68.4344C84.3544 62.1142 109.199 61.5624 107.025 60.3045C104.85 59.0465 86.815 55.5416 75.314 70.8641Z" fill="#FFF0FA"/>
<path d="M78.6537 76.3214C74.5067 95.6069 85.0437 105.99 90.8306 108.77C80.0148 101.736 79.0917 80.9599 81.2228 83.5273C82.9277 85.5811 86.2246 91.4942 87.6599 94.194C87.9644 92.5854 87.4384 87.5485 82.8983 80.2702C90.1788 81.3675 100.113 104.146 100.452 101.657C100.791 99.168 97.1936 81.1513 78.6537 76.3214Z" fill="#FFF0FA"/>
<path d="M78 63C76.6667 65.3333 73.9 69.9 73.5 69.5" stroke="black" stroke-width="0.5"/>
<path d="M74 71.5C74.8333 73.5 76.4 78 76 80" stroke="black" stroke-width="0.5"/>
<path d="M72 71.5C71.6667 73.3333 70.7 77.1 69.5 77.5" stroke="black" stroke-width="0.5"/>
<path d="M73 68C73 60 73.3333 57.6667 73.5 57.5" stroke="black" stroke-width="0.5"/>
<path d="M74 71C76.5 69.3333 82 66 84 66" stroke="black" stroke-width="0.5"/>
<path d="M66 62.5C68.1667 64.8333 72.5 69.6 72.5 70" stroke="black" stroke-width="0.5"/>
<path d="M62.5 72C66 71.3333 73 70.1 73 70.5" stroke="black" stroke-width="0.5"/>
<path d="M74.5 70.5C76.8333 71.5 81.5 73.4 81.5 73" stroke="black" stroke-width="0.5"/>
<circle cx="78.5" cy="62.5" r="1.625" fill="#FADB2C" stroke="black" stroke-width="0.25"/>
<circle cx="73" cy="70" r="2.125" fill="#EDABDB" stroke="black" stroke-width="0.25"/>
<circle cx="61" cy="72" r="2.125" fill="#FADB2C" stroke="black" stroke-width="0.25"/>
<circle cx="76.5" cy="81.5" r="2.625" fill="#FADB2C" stroke="black" stroke-width="0.25"/>
<circle cx="81.5" cy="72.5" r="1.625" fill="#FADB2C" stroke="black" stroke-width="0.25"/>
<circle cx="85" cy="66" r="2.125" fill="#FADB2C" stroke="black" stroke-width="0.25"/>
<circle cx="73" cy="57" r="2.125" fill="#FADB2C" stroke="black" stroke-width="0.25"/>
<circle cx="69" cy="78" r="2.125" fill="#FADB2C" stroke="black" stroke-width="0.25"/>
<circle cx="65.5" cy="61.5" r="1.625" fill="#FADB2C" stroke="black" stroke-width="0.25"/>
</svg>
