<?xml version="1.0" encoding="UTF-8"?>
<svg xmlns="http://www.w3.org/2000/svg" xmlns:xlink="http://www.w3.org/1999/xlink" version="1.1" viewBox="0 0 1224 792">
  <defs>
    <style>
      .cls-1, .cls-2 {
        fill: none;
      }

      .cls-2 {
        stroke: #231f20;
        stroke-miterlimit: 10;
      }

      .cls-3 {
        fill: #eaeaea;
      }

      .cls-4 {
        fill: #231f20;
      }

      .cls-5 {
        fill: url(#New_Pattern_Swatch_6);
      }
    </style>
    <pattern id="New_Pattern_Swatch_6" data-name="New Pattern Swatch 6" x="0" y="0" width="360" height="360" patternTransform="translate(1052.09 434.78)" patternUnits="userSpaceOnUse" viewBox="0 0 360 360">
      <g>
        <rect class="cls-1" x="0" width="360" height="360"/>
        <rect class="cls-3" x=".29" y="-.55" width="360" height="360"/>
        <g>
          <g>
            <path class="cls-4" d="M115.48,48.08c1.65-.43,3.07-1.71,3.9-3.52,1.58-3.44.62-7.86-2.13-9.86-1.27-.92-2.77-1.22-4.22-.84-1.65.43-3.07,1.71-3.9,3.52h0c-1.58,3.44-.62,7.86,2.14,9.86.91.66,1.94,1,2.99,1,.41,0,.82-.05,1.23-.16ZM113.28,34.82c1.15-.3,2.35-.06,3.38.69,2.39,1.73,3.21,5.61,1.81,8.64-.7,1.53-1.89,2.61-3.24,2.97-1.15.3-2.35.06-3.38-.69-2.39-1.73-3.21-5.61-1.81-8.64h0c.7-1.53,1.89-2.61,3.24-2.97Z"/>
            <path class="cls-4" d="M118.15,64.94c5.48-1.44,10.23-5.7,13.02-11.68,5.41-11.6,2.17-26.5-7.21-33.21-4.25-3.04-9.24-4.02-14.04-2.76-5.48,1.44-10.23,5.7-13.02,11.68h0c-5.41,11.6-2.17,26.5,7.21,33.21,3.04,2.17,6.46,3.29,9.91,3.29,1.38,0,2.76-.18,4.13-.54ZM123.37,20.86c9.01,6.44,12.1,20.79,6.89,31.97-2.66,5.72-7.17,9.78-12.37,11.14-4.51,1.19-9.2.26-13.2-2.6-9.01-6.44-12.1-20.79-6.89-31.97h0c2.66-5.72,7.17-9.78,12.37-11.14,1.28-.34,2.58-.5,3.87-.5,3.25,0,6.47,1.06,9.33,3.11Z"/>
            <polygon class="cls-4" points="110.73 26.59 111.67 27.67 115.56 24.28 114.61 23.2 110.73 26.59"/>
            <polygon class="cls-4" points="122.68 31.71 123.76 30.77 120.37 26.88 119.29 27.82 122.68 31.71"/>
            <polygon class="cls-4" points="107.34 32.99 108.47 32.11 105.28 28.04 104.16 28.93 107.34 32.99"/>
            <polygon class="cls-4" points="99.11 39.44 100.06 40.52 103.94 37.12 103 36.04 99.11 39.44"/>
            <polygon class="cls-4" points="105.22 49.77 106.3 48.83 102.9 44.95 101.82 45.89 105.22 49.77"/>
            <polygon class="cls-4" points="125.37 48.75 126.39 47.74 122.74 44.09 121.72 45.1 125.37 48.75"/>
            <polygon class="cls-4" points="129.01 36.69 127.89 35.81 124.69 39.86 125.81 40.75 129.01 36.69"/>
            <path class="cls-4" d="M106.58,57.06c-1.84,0-2.35-.9-2.85-1.77-.67-1.19-1.51-2.66-6.82-2.71v-1c5.9.05,6.93,1.88,7.69,3.22.48.85.75,1.31,2.14,1.27,1.75-.06,2.19-.9,2.75-1.96.6-1.15,1.39-2.56,4.04-2.52,2.25.04,3.54,1.61,4.58,2.87.7.85,1.3,1.59,1.97,1.61.53,0,1.15-.38,1.91-1.19,4.21-4.47,8.99-3.13,9.19-3.07l-.28.96c-.18-.05-4.41-1.21-8.18,2.79-.99,1.05-1.83,1.54-2.67,1.5-1.12-.04-1.89-.98-2.71-1.97-1-1.22-2.04-2.48-3.82-2.51-2.09-.04-2.55.86-3.14,1.99-.6,1.13-1.27,2.41-3.6,2.49-.07,0-.13,0-.2,0Z"/>
          </g>
          <g>
            <path class="cls-4" d="M276.24,270.17c1.65-.43,3.07-1.71,3.9-3.52,1.58-3.44.62-7.86-2.13-9.86-1.27-.92-2.77-1.22-4.22-.84-1.65.43-3.07,1.71-3.9,3.52h0c-1.58,3.44-.62,7.86,2.13,9.86.91.66,1.94,1,2.99,1,.41,0,.82-.05,1.23-.16ZM277.42,257.6c2.39,1.73,3.21,5.61,1.81,8.64-.7,1.53-1.89,2.61-3.24,2.97-1.15.3-2.35.06-3.38-.69-2.39-1.73-3.21-5.61-1.81-8.64h0c.7-1.53,1.89-2.61,3.24-2.97.32-.08.65-.13.97-.13.84,0,1.67.28,2.4.81Z"/>
            <path class="cls-4" d="M278.91,287.03c5.48-1.44,10.23-5.7,13.02-11.68,5.41-11.6,2.17-26.5-7.21-33.21-4.25-3.04-9.24-4.02-14.04-2.76-5.48,1.44-10.23,5.7-13.02,11.69h0c-5.41,11.6-2.17,26.5,7.21,33.21,3.04,2.17,6.46,3.29,9.91,3.29,1.38,0,2.76-.18,4.13-.54ZM284.14,242.95c9.01,6.45,12.1,20.79,6.89,31.98-2.66,5.71-7.17,9.77-12.37,11.14-4.51,1.18-9.2.26-13.2-2.6-9.01-6.44-12.1-20.79-6.89-31.97h0c2.66-5.71,7.17-9.78,12.37-11.14,1.28-.34,2.58-.5,3.87-.5,3.25,0,6.47,1.06,9.33,3.11Z"/>
            <polygon class="cls-4" points="271.49 248.68 272.43 249.76 276.32 246.37 275.38 245.29 271.49 248.68"/>
            <polygon class="cls-4" points="283.45 253.8 284.53 252.86 281.13 248.97 280.05 249.91 283.45 253.8"/>
            <polygon class="cls-4" points="268.1 255.08 269.23 254.2 266.05 250.13 264.92 251.02 268.1 255.08"/>
            <polygon class="cls-4" points="259.88 261.53 260.82 262.6 264.71 259.21 263.77 258.13 259.88 261.53"/>
            <polygon class="cls-4" points="265.98 271.86 267.06 270.92 263.67 267.03 262.59 267.98 265.98 271.86"/>
            <polygon class="cls-4" points="286.14 270.84 287.15 269.83 283.5 266.18 282.49 267.19 286.14 270.84"/>
            <polygon class="cls-4" points="289.77 258.78 288.65 257.9 285.46 261.95 286.58 262.84 289.77 258.78"/>
            <path class="cls-4" d="M267.35,279.14c-1.84,0-2.35-.9-2.85-1.77-.67-1.19-1.51-2.67-6.82-2.71v-1c5.9.05,6.93,1.88,7.69,3.22.48.85.73,1.31,2.14,1.27,1.75-.06,2.19-.9,2.75-1.96.6-1.15,1.36-2.6,4.04-2.52,2.25.04,3.54,1.61,4.58,2.87.7.85,1.3,1.59,1.97,1.61.5,0,1.15-.38,1.91-1.19,4.21-4.46,8.99-3.13,9.19-3.07l-.28.96c-.18-.05-4.41-1.21-8.18,2.79-.99,1.05-1.86,1.54-2.67,1.5-1.12-.04-1.89-.98-2.71-1.97-1-1.22-2.04-2.48-3.82-2.51-2.06-.05-2.55.86-3.14,1.99-.59,1.13-1.27,2.41-3.6,2.49-.07,0-.13,0-.2,0Z"/>
          </g>
          <g>
            <path class="cls-4" d="M44.02-9.58c.92-.09,1.74-.54,2.32-1.26.58-.72.85-1.61.75-2.53h0c-.1-.92-.54-1.74-1.26-2.32-.72-.58-1.62-.85-2.53-.75-.92.09-1.74.54-2.32,1.26-.58.72-.85,1.61-.75,2.53s.54,1.74,1.26,2.32c.62.5,1.38.77,2.17.77.12,0,.24,0,.36-.02ZM45.21-14.92c.51.41.83,1,.89,1.65h0c.07.65-.12,1.29-.54,1.8s-1,.83-1.65.89c-.65.07-1.29-.12-1.8-.54-.51-.41-.83-1-.89-1.65-.07-.65.12-1.29.54-1.8.41-.51,1-.83,1.65-.89.09,0,.17-.01.26-.01.56,0,1.1.19,1.54.55Z"/>
            <path class="cls-4" d="M40.33,4.35c.89-.22,1.65-.78,2.12-1.57.48-.79.61-1.72.39-2.61-.46-1.85-2.34-2.98-4.18-2.52-1.85.46-2.98,2.34-2.52,4.18.39,1.57,1.8,2.62,3.35,2.62.27,0,.55-.03.83-.1ZM41.88.41h0c.16.64.06,1.29-.28,1.86-.34.56-.87.96-1.51,1.11-1.32.33-2.64-.48-2.97-1.79-.33-1.31.48-2.64,1.79-2.97.2-.05.4-.07.59-.07,1.1,0,2.1.75,2.38,1.86Z"/>
            <path class="cls-4" d="M53.3-.37c.7-1.77-.18-3.78-1.95-4.48-1.77-.7-3.78.18-4.48,1.95-.34.86-.32,1.8.05,2.64s1.04,1.5,1.9,1.83c.41.16.84.24,1.26.24,1.38,0,2.68-.83,3.22-2.19ZM50.99-3.91c1.26.49,1.88,1.92,1.38,3.18-.24.61-.7,1.09-1.3,1.35-.6.26-1.27.27-1.88.03h0c-.61-.24-1.09-.7-1.35-1.3-.26-.6-.27-1.27-.03-1.88.24-.61.7-1.09,1.3-1.35.31-.14.65-.21.98-.21.3,0,.61.06.9.17Z"/>
            <path class="cls-4" d="M62.15,7.48c.34-.86.32-1.8-.05-2.64s-1.04-1.5-1.9-1.83c-1.77-.7-3.78.18-4.48,1.95-.7,1.77.18,3.78,1.95,4.48h0c.41.16.84.24,1.26.24,1.38,0,2.68-.83,3.22-2.19ZM58.04,8.49c-1.26-.49-1.88-1.92-1.38-3.18.24-.61.7-1.09,1.3-1.35.6-.26,1.27-.27,1.88-.03.61.24,1.09.7,1.35,1.3.26.6.27,1.27.03,1.88-.24.61-.7,1.09-1.3,1.35-.6.26-1.27.27-1.88.03h0Z"/>
            <path class="cls-4" d="M48.86,13.61c.8-.46,1.37-1.21,1.61-2.1.24-.89.12-1.82-.34-2.62s-1.21-1.37-2.1-1.61c-.89-.24-1.82-.12-2.62.34-.8.46-1.37,1.21-1.61,2.1-.24.89-.12,1.82.34,2.62.64,1.11,1.8,1.73,3,1.73.58,0,1.18-.15,1.72-.46ZM47.77,8.25c.63.17,1.16.58,1.49,1.14h0c.33.57.41,1.23.25,1.86-.17.63-.58,1.16-1.14,1.49-1.17.67-2.67.27-3.35-.9-.68-1.17-.27-2.67.9-3.35.38-.22.8-.33,1.22-.33.21,0,.43.03.64.08Z"/>
            <rect class="cls-4" x="53.55" y="12.32" width="1.6" height="2.37"/>
            <rect class="cls-4" x="63.37" y="-1.37" width="1.6" height="2.37"/>
            <rect class="cls-4" x="37.22" y="-8.61" width="1.6" height="2.37"/>
            <rect class="cls-4" x="47.14" y="-20.45" width="1.6" height="2.37"/>
            <path class="cls-4" d="M66.32,15.33c3.31-2.88,5.23-6.46,5.39-10.08.35-7.54-.29-11.45-1.94-11.97-.55-.17-1.02-.04-1.44.08-.45.13-.88.25-1.49.07-.1-.06-.32-.44-.46-.68-.38-.66-.85-1.48-1.64-1.81-.08-.04-1.94-.86-3.72,2.57-.16.21-1.38.8-2.89.61-1.25-.16-2.97-.91-4.12-3.57-2.17-5.03-1.22-10.32-.88-11.08l.1-.07.06-.2c.07-.21.17-.52-.8-2.4-.14-.27-.21-.56-.22-.86h0c-.02-1.02-.6-2.03-1.47-2.58-.74-.46-1.59-.53-2.33-.19l-1.62.73c-8.72,3.94-12.7,5.74-15.06,14.34-2.88,10.54-.9,15.32.69,19.16.43,1.03.83,2,1.08,2.98l.51.75c4.42,5.98,6.44,8.71,15.96,9.62.58.06,1.16.08,1.75.08,5.1,0,10.52-2.03,14.53-5.51ZM33.41,7.02c-1.53-3.7-3.44-8.3-.65-18.51,2.23-8.15,5.82-9.77,14.5-13.69l1.62-.73c.59-.27,1.12-.03,1.38.13.59.37.99,1.06,1.01,1.76h0c.01.45.12.89.33,1.29.48.93.67,1.43.71,1.63-.86,1.34-1.24,7.38.77,12.05,1.53,3.55,4.06,4.16,5.43,4.21,1.59.06,3.06-.57,3.37-1.16,1.05-2.03,2.05-2.29,2.44-2.14.5.21.86.84,1.18,1.4.31.54.57,1,1.01,1.14.92.28,1.56.09,2.08-.06.38-.11.61-.17.86-.09.29.09,1.7,1.04,1.24,10.97-.15,3.35-1.95,6.68-5.05,9.37-4.2,3.65-10.3,5.68-15.52,5.19-9.08-.87-10.89-3.31-15.25-9.22l-.37-.5c-.27-1.01-.67-1.99-1.1-3.02ZM53-20.45l.08-.05s-.05.04-.08.05ZM52.42-21.24s.08-.08.13-.11c-.05.02-.09.06-.13.11ZM52.55-21.34s0,0,0,0c0,0,0,0,0,0Z"/>
            <path class="cls-2" d="M34.05,10.26"/>
            <path class="cls-2" d="M32.28-11.62"/>
            <path class="cls-2" d="M48.68-26.37"/>
          </g>
          <g>
            <polygon class="cls-4" points="275.48 104.48 276.57 105.41 279.33 102.15 278.24 101.22 275.48 104.48"/>
            <polygon class="cls-4" points="285.75 105.58 286.84 106.5 289.61 103.25 288.52 102.32 285.75 105.58"/>
            <polygon class="cls-4" points="283.83 98.43 284.84 97.41 281.82 94.39 280.81 95.4 283.83 98.43"/>
            <polygon class="cls-4" points="283.83 112.15 284.84 111.14 281.82 108.12 280.81 109.13 283.83 112.15"/>
            <rect class="cls-4" x="282.34" y="121.38" width="1.18" height="9.74"/>
            <polygon class="cls-4" points="275.72 130.91 276.9 130.91 275.91 121.17 274.53 121.17 275.72 130.91"/>
            <polygon class="cls-4" points="288.66 131.11 290.06 131.11 291.33 121.38 289.82 121.38 288.66 131.11"/>
            <polygon class="cls-4" points="271.22 110.2 272.23 109.19 269.21 106.16 268.2 107.18 271.22 110.2"/>
            <polygon class="cls-4" points="296.37 109.35 297.38 108.34 294.36 105.31 293.34 106.33 296.37 109.35"/>
            <path class="cls-4" d="M298.37,116.98c1.72-.97,2.97-3.66,3.72-7.98,1.12-6.43-.83-10.08-2.09-11.69-1.27-1.62-2.99-2.66-4.6-2.77-.86-.06-1.54.14-2.01.58-.25.23-.42.51-.55.82-.38-1.28-.98-2.63-1.85-3.84-1.87-2.57-4.58-3.95-8.06-4.11-6.48-.28-8.4,3.74-9.06,7.53-.26-.53-.62-.97-1.12-1.22-1.44-.73-3.47.23-6.23,2.91-2.31,2.25-3.48,4.87-3.47,7.78.02,6.4,5.66,11.92,5.9,12.15l.15.14h27.43c.11.03.29.07.53.07.35,0,.81-.08,1.33-.37ZM269.49,116.29c-.86-.89-5.44-5.86-5.45-11.3,0-2.63,1.06-5,3.17-7.06,2.31-2.25,4.11-3.23,5.08-2.74,1.45.73,1.25,4.67,1.06,5.99l.99.15c.03-.19.05-.41.07-.65.03-.28.05-.63.07-1.02,0-.09,0-.19.01-.28.23-4.28.58-10.75,8.39-10.4,3.16.14,5.61,1.38,7.29,3.7,2.11,2.9,2.37,6.57,2.28,7.69-.01.1-.03.2-.05.3l.97.23c.02-.08.04-.19.06-.33.08-.58.08-1.22.08-1.84,0-1.16,0-2.36.55-2.88.27-.25.67-.35,1.26-.31,1.33.09,2.78.98,3.88,2.39,1.16,1.48,2.95,4.86,1.9,10.9-.86,4.95-2.21,6.68-3.19,7.26-.64.38-1.11.24-1.16.23l-27.27-.03Z"/>
            <path class="cls-4" d="M297.21,116.29h-28.54l4.11,19.98,19.85.29,4.58-20.27ZM269.9,117.29h26.06l-4.12,18.26-18.24-.26-3.7-18Z"/>
          </g>
          <g>
            <polygon class="cls-4" points="62.07 83.6 61.25 83.6 60.42 75.61 61.2 75.61 62.07 83.6"/>
            <rect class="cls-4" x="55.44" y="75.28" width=".73" height="7.98"/>
            <polygon class="cls-4" points="49.9 83.27 49.1 83.27 49.98 75.28 50.71 75.28 49.9 83.27"/>
            <path class="cls-4" d="M49.68,63.52c-.84-.81-2.02-3.52-.79-4.97.83-.98,1.93-3.99,1.31-5.33-.2-.43-.57-.64-1.12-.64v-.5c.75,0,1.29.32,1.57.93.73,1.58-.48,4.79-1.38,5.86-1,1.18.06,3.61.76,4.28l-.35.36Z"/>
            <path class="cls-4" d="M55.15,63.52c-.84-.81-2.02-3.52-.79-4.97.83-.98,1.93-3.99,1.31-5.33-.2-.43-.57-.64-1.12-.64v-.5c.75,0,1.29.32,1.57.93.73,1.58-.48,4.79-1.38,5.86-1,1.18.06,3.61.76,4.28l-.35.36Z"/>
            <path class="cls-4" d="M61.12,63.52c-.84-.81-2.02-3.52-.79-4.97.83-.98,1.93-3.99,1.31-5.33-.2-.43-.57-.64-1.12-.64v-.5c.75,0,1.29.32,1.57.93.73,1.58-.48,4.79-1.38,5.86-1,1.18.06,3.61.76,4.28l-.35.36Z"/>
            <path class="cls-4" d="M70.57,91.28c.93-.28,3.93-1.48,3.98-5.14.06-4.14-8.32-15.47-17.33-15.75-8.6-.27-20.8,8.12-21.37,12.27-.36,2.63.25,5.48,1.52,7.09.53.67,1.15,1.09,1.81,1.24l4.21,9.79h23.46l3.72-9.5ZM39.87,90.06l-.29-.03c-.51-.05-.99-.36-1.43-.91-1.1-1.39-1.64-4-1.32-6.34.47-3.39,11.8-11.66,20.35-11.4,8.32.26,16.41,10.98,16.36,14.74-.05,3.5-3.32,4.22-3.45,4.25l-.27.06-3.66,9.35h-22.12l-4.17-9.71Z"/>
            <path class="cls-4" d="M69.76,91.4c-1.75,0-3.03-1.55-3.69-2.6-.52.81-1.55,1.65-3.32,1.79-1.99.16-3.33-.95-4.02-1.93-.6.86-1.79,2.17-3.52,2.38-1.81.23-3.04-1.24-3.67-2.26-.52.88-1.5,2.09-3.09,2.25-1.75.17-3.11-1.22-3.79-2.12-.6.82-1.98,1.97-5.1,2.12l-.05-1c4.03-.2,4.58-2.13,4.6-2.21l.31-1.18.61,1.05s1.47,2.54,3.31,2.34c1.85-.19,2.69-2.51,2.7-2.53l.43-1.23.5,1.21s1.18,2.81,3.11,2.57c2.03-.25,3.2-2.58,3.21-2.6l.49-1,.42,1.04c.04.09.96,2.3,3.46,2.11,2.47-.19,2.83-1.94,2.85-2.01l.29-1.54.65,1.42s1.52,3.28,3.64,2.91l.17.99c-.18.03-.35.05-.52.05Z"/>
          </g>
          <g>
            <path class="cls-4" d="M199.62,7.01h-35.57v15.75h35.57V7.01ZM165.05,8.01h33.57v13.75h-33.57v-13.75Z"/>
            <path class="cls-4" d="M196.31-9.72h-28.08V8.01h28.08V-9.72ZM169.23-8.72h26.08V7.01h-26.08v-15.73Z"/>
            <polygon class="cls-4" points="193.28 18.04 187.66 12.75 181.83 18.04 176.11 12.75 170.27 18.04 164.29 12.52 164.8 11.97 170.28 17.02 176.11 11.74 181.84 17.02 187.67 11.73 193.29 17.02 198.87 11.97 199.37 12.52 193.28 18.04"/>
            <polygon class="cls-4" points="177.87 1.14 172.21 -2.78 169.02 .93 168.45 .44 172.08 -3.78 177.87 .23 183.7 -3.73 189.76 .24 195.61 -3.59 196.02 -2.97 189.76 1.13 183.71 -2.83 177.87 1.14"/>
            <rect class="cls-4" x="174.51" y="-16.93" width="1" height="7.71"/>
            <rect class="cls-4" x="181.77" y="-16.93" width="1" height="7.16"/>
            <rect class="cls-4" x="188.71" y="-16.93" width="1" height="7.16"/>
            <rect class="cls-4" x="174.51" y="-23.98" width="1" height="1.65"/>
            <rect class="cls-4" x="181.33" y="-23.98" width="1" height="1.65"/>
            <rect class="cls-4" x="188.71" y="-23.98" width="1" height="1.65"/>
          </g>
          <g>
            <path class="cls-4" d="M385.21,273.94h-35.57v15.75h35.57v-15.75ZM350.64,274.94h33.57v13.75h-33.57v-13.75Z"/>
            <path class="cls-4" d="M381.91,257.21h-28.08v17.73h28.08v-17.73ZM354.82,258.21h26.08v15.73h-26.08v-15.73Z"/>
            <polygon class="cls-4" points="378.87 284.97 373.25 279.69 367.42 284.97 361.7 279.68 355.86 284.97 349.89 279.45 350.39 278.9 355.87 283.95 361.7 278.67 367.43 283.95 373.26 278.66 378.88 283.95 384.46 278.9 384.96 279.45 378.87 284.97"/>
            <polygon class="cls-4" points="363.46 268.07 357.8 264.15 354.61 267.86 354.04 267.37 357.67 263.15 363.46 267.16 369.29 263.2 375.35 267.17 381.2 263.34 381.61 263.97 375.35 268.06 369.3 264.1 363.46 268.07"/>
            <rect class="cls-4" x="360.1" y="250" width="1" height="7.71"/>
            <rect class="cls-4" x="367.37" y="250" width="1" height="7.16"/>
            <rect class="cls-4" x="374.3" y="250" width="1" height="7.16"/>
            <rect class="cls-4" x="360.1" y="242.95" width="1" height="1.65"/>
            <rect class="cls-4" x="366.92" y="242.95" width="1" height="1.65"/>
            <rect class="cls-4" x="374.3" y="242.95" width="1" height="1.65"/>
          </g>
          <g>
            <polygon class="cls-4" points="127.66 114.84 127.22 114.46 143.11 95.5 143.56 95.87 127.66 114.84"/>
            <path class="cls-4" d="M131.7,124.59c1.1-.1,2.1-.62,2.81-1.46l17.9-21.37c.71-.85,1.05-1.92.95-3.02s-.62-2.1-1.46-2.81l-5.71-4.79c-.85-.71-1.92-1.05-3.02-.95-1.1.1-2.1.62-2.81,1.46l-17.9,21.37c-1.47,1.75-1.23,4.36.51,5.83l5.71,4.78c.75.63,1.68.97,2.65.97.12,0,.25,0,.37-.02ZM145.71,91.72l5.71,4.79c.69.58,1.12,1.4,1.2,2.3s-.2,1.78-.78,2.47l-17.9,21.37c-.58.69-1.4,1.12-2.3,1.2-.9.08-1.78-.2-2.47-.78l-5.71-4.78c-1.43-1.2-1.62-3.34-.42-4.77l17.9-21.37c.58-.69,1.4-1.12,2.3-1.2.1,0,.2-.01.3-.01.79,0,1.55.28,2.17.79Z"/>
            <path class="cls-4" d="M150.99,95.78l-.64-.77c1.65-1.36,5.89-5.48,5.77-8.16-.03-.7-.36-1.25-1-1.69-.71-.49-1.45-.62-2.26-.41-3.31.84-6.44,6.86-6.47,6.92l-.89-.46c.14-.26,3.36-6.48,7.11-7.43,1.09-.28,2.13-.09,3.07.56.91.62,1.39,1.45,1.44,2.47.17,3.73-5.87,8.77-6.13,8.98Z"/>
            <path class="cls-4" d="M121.01,131.58c-.82,0-1.57-.33-2.21-.99-.79-.81-1.15-1.79-1.08-2.92.26-3.96,5.94-8.47,6.18-8.66l.62.79c-.06.04-5.57,4.42-5.8,7.94-.06.85.21,1.55.8,2.15.53.54,1.12.76,1.8.67,2.69-.36,6.09-5.5,7.17-7.45l.88.48c-.17.3-4.17,7.45-7.91,7.96-.15.02-.29.03-.43.03Z"/>
          </g>
          <g>
            <path class="cls-4" d="M201.63,164.65c2.76-2,3.71-6.42,2.13-9.86-.83-1.8-2.25-3.09-3.9-3.52-1.44-.38-2.94-.08-4.22.84-2.76,2-3.72,6.42-2.14,9.86.83,1.8,2.25,3.09,3.9,3.52.41.11.82.16,1.23.16,1.04,0,2.07-.34,2.99-1ZM199.61,152.24c1.36.36,2.54,1.44,3.24,2.97,1.39,3.03.58,6.9-1.81,8.64-1.03.74-2.22.99-3.38.69-1.36-.36-2.54-1.44-3.24-2.97-1.39-3.03-.58-6.9,1.81-8.64.74-.54,1.57-.81,2.4-.81.32,0,.65.04.97.13Z"/>
            <path class="cls-4" d="M208.78,179.6c9.38-6.71,12.62-21.61,7.21-33.21-2.79-5.99-7.54-10.24-13.02-11.68-4.81-1.26-9.79-.28-14.04,2.76-9.38,6.71-12.62,21.61-7.21,33.21,2.79,5.99,7.54,10.24,13.02,11.68,1.37.36,2.75.54,4.13.54,3.46,0,6.87-1.12,9.91-3.29ZM202.72,135.67c5.2,1.36,9.7,5.42,12.37,11.14,5.21,11.19,2.12,25.53-6.89,31.97-4,2.86-8.69,3.79-13.2,2.6-5.2-1.37-9.7-5.43-12.37-11.14-5.21-11.19-2.12-25.53,6.89-31.97,2.87-2.05,6.08-3.11,9.33-3.11,1.29,0,2.59.17,3.87.5Z"/>
            <polygon class="cls-4" points="202.16 144.01 201.22 145.09 197.33 141.69 198.27 140.61 202.16 144.01"/>
            <polygon class="cls-4" points="190.2 149.13 189.13 148.19 192.52 144.3 193.6 145.24 190.2 149.13"/>
            <polygon class="cls-4" points="205.55 150.41 204.42 149.53 207.6 145.46 208.73 146.34 205.55 150.41"/>
            <polygon class="cls-4" points="213.77 156.85 212.83 157.93 208.94 154.54 209.89 153.46 213.77 156.85"/>
            <polygon class="cls-4" points="207.67 167.19 206.59 166.25 209.99 162.36 211.06 163.3 207.67 167.19"/>
            <polygon class="cls-4" points="187.51 166.17 186.5 165.16 190.15 161.51 191.16 162.52 187.51 166.17"/>
            <polygon class="cls-4" points="183.88 154.11 185 153.22 188.2 157.28 187.07 158.16 183.88 154.11"/>
            <path class="cls-4" d="M206.3,174.47c-.06,0-.13,0-.2,0-2.33-.08-3.01-1.36-3.6-2.49-.6-1.13-1.1-2.04-3.14-1.99-1.79.03-2.82,1.29-3.82,2.51-.82.99-1.59,1.93-2.71,1.97-.79.04-1.68-.45-2.67-1.5-3.77-4.01-8-2.84-8.18-2.79l-.28-.96c.2-.06,4.98-1.4,9.19,3.07.76.8,1.39,1.18,1.91,1.19.67-.02,1.27-.76,1.97-1.61,1.04-1.26,2.33-2.83,4.58-2.87,2.68-.04,3.44,1.38,4.04,2.52.56,1.06,1,1.9,2.75,1.96,1.4.04,1.66-.42,2.14-1.27.76-1.34,1.8-3.17,7.68-3.22v1c-5.3.05-6.14,1.52-6.81,2.71-.5.87-1.01,1.77-2.85,1.77Z"/>
          </g>
          <g>
            <path class="cls-4" d="M110.56,259.09c.72-.58,1.16-1.41,1.26-2.32.2-1.89-1.19-3.59-3.08-3.79-1.89-.2-3.59,1.19-3.79,3.08-.2,1.89,1.19,3.59,3.08,3.79.12.01.24.02.36.02.79,0,1.55-.27,2.17-.77ZM108.64,253.97c1.34.14,2.33,1.35,2.19,2.69-.07.65-.38,1.24-.89,1.65s-1.15.6-1.8.54c-1.34-.14-2.33-1.35-2.19-2.69.13-1.26,1.2-2.2,2.44-2.2.08,0,.17,0,.25.01Z"/>
            <path class="cls-4" d="M115.9,271.26c.22-.89.08-1.82-.39-2.61-.48-.79-1.23-1.35-2.12-1.57s-1.82-.08-2.61.39c-.79.48-1.35,1.23-1.57,2.12-.46,1.85.67,3.72,2.52,4.18.28.07.56.1.83.1,1.55,0,2.96-1.05,3.35-2.62ZM113.14,268.05c.64.16,1.17.55,1.51,1.11.34.56.44,1.22.28,1.86-.33,1.31-1.66,2.11-2.97,1.79-1.31-.33-2.11-1.66-1.79-2.97.16-.63.55-1.17,1.11-1.51.39-.23.82-.35,1.26-.35.2,0,.4.02.6.07Z"/>
            <path class="cls-4" d="M103.22,271.01h0c1.77-.7,2.65-2.7,1.95-4.47-.7-1.77-2.71-2.65-4.48-1.95-1.77.7-2.65,2.7-1.95,4.47.53,1.36,1.84,2.19,3.22,2.19.42,0,.85-.08,1.26-.24ZM104.24,266.9c.49,1.26-.13,2.68-1.38,3.18-1.26.49-2.68-.13-3.18-1.38-.49-1.26.13-2.68,1.38-3.18.29-.12.6-.17.89-.17.98,0,1.91.59,2.29,1.55Z"/>
            <path class="cls-4" d="M94.37,278.85h0c.86-.34,1.53-.99,1.9-1.83.37-.84.39-1.78.05-2.64-.34-.86-.99-1.53-1.83-1.9s-1.78-.38-2.64-.05c-.86.34-1.53.99-1.9,1.83-.37.85-.39,1.78-.05,2.64.34.86.99,1.53,1.83,1.9.44.19.91.29,1.38.29.43,0,.85-.08,1.26-.24ZM94.09,273.39c.6.26,1.06.74,1.3,1.35s.23,1.28-.03,1.88c-.26.6-.74,1.06-1.35,1.3h0c-.61.24-1.27.23-1.88-.03-.6-.26-1.06-.74-1.3-1.35s-.23-1.28.03-1.88c.26-.6.74-1.06,1.35-1.3.29-.11.59-.17.9-.17.33,0,.66.07.98.21Z"/>
            <path class="cls-4" d="M105.8,283.38c.89-.24,1.63-.81,2.1-1.61.46-.8.58-1.73.34-2.62-.24-.89-.81-1.63-1.61-2.09-.8-.46-1.73-.58-2.62-.35-.89.24-1.63.81-2.1,1.61-.46.8-.58,1.73-.34,2.62.24.89.81,1.63,1.61,2.09.53.31,1.12.46,1.72.46.3,0,.6-.04.9-.12ZM106.14,277.92c.57.33.97.86,1.14,1.49.17.63.08,1.29-.25,1.86-.33.57-.86.97-1.49,1.14-.63.17-1.29.08-1.86-.25-.57-.33-.97-.86-1.14-1.49-.17-.63-.08-1.29.25-1.86h0c.33-.57.86-.97,1.49-1.14.21-.06.43-.08.64-.08.42,0,.84.11,1.22.33Z"/>
            <polygon class="cls-4" points="96.91 284.12 98.5 284.12 98.5 281.75 96.91 281.75 96.91 284.12"/>
            <polygon class="cls-4" points="87.08 270.43 88.68 270.43 88.68 268.06 87.08 268.06 87.08 270.43"/>
            <polygon class="cls-4" points="113.23 263.18 114.83 263.18 114.83 260.81 113.23 260.81 113.23 263.18"/>
            <polygon class="cls-4" points="103.32 251.34 104.91 251.34 104.91 248.97 103.32 248.97 103.32 251.34"/>
            <path class="cls-4" d="M102.01,290.18c9.52-.91,11.54-3.64,15.96-9.62l.43-.58.08-.17c.25-.98.66-1.95,1.08-2.98,1.59-3.84,3.57-8.62.69-19.16-2.35-8.6-6.33-10.4-15.05-14.34l-1.62-.73c-.74-.34-1.59-.27-2.33.19-.87.55-1.45,1.56-1.47,2.58,0,.3-.08.59-.22.86-.97,1.88-.87,2.19-.8,2.4.03.1.09.19.16.25.34.73,1.3,6.04-.87,11.09-1.15,2.66-2.87,3.41-4.12,3.57-1.51.19-2.73-.4-2.88-.59-1.79-3.45-3.65-2.62-3.71-2.6-.82.34-1.29,1.16-1.66,1.82-.14.25-.35.62-.43.67-.63.19-1.06.07-1.52-.06-.42-.12-.89-.26-1.44-.08-1.65.52-2.28,4.43-1.94,11.97.17,3.63,2.08,7.21,5.4,10.08,4,3.48,9.43,5.51,14.53,5.51.59,0,1.17-.03,1.75-.08ZM83.44,263.75c.52.15,1.17.33,2.08.06.44-.13.71-.6,1.01-1.14.32-.56.68-1.19,1.18-1.4.38-.15,1.38.11,2.44,2.14.31.6,1.77,1.23,3.37,1.16,1.37-.05,3.9-.66,5.43-4.21,2.01-4.67,1.63-10.71.77-12.05.05-.2.23-.7.71-1.63.21-.4.32-.84.33-1.29h0c.02-.69.41-1.38,1-1.76.26-.17.79-.4,1.38-.13l1.62.74c8.68,3.92,12.27,5.55,14.5,13.69,2.79,10.21.88,14.81-.65,18.51-.43,1.03-.83,2.01-1.1,3.02l-.37.5c-4.37,5.91-6.17,8.35-15.25,9.22-5.23.5-11.32-1.54-15.52-5.18-3.1-2.7-4.9-6.02-5.05-9.37-.46-9.93.95-10.88,1.24-10.97.08-.02.16-.04.24-.04.17,0,.36.05.62.13ZM99.63,248.19s-.09-.09-.14-.11c.06.03.1.07.14.11Z"/>
            <path class="cls-2" d="M118,279.69"/>
            <path class="cls-2" d="M119.77,257.81"/>
            <path class="cls-2" d="M103.37,243.06"/>
          </g>
          <g>
            <path class="cls-4" d="M256.47,321.5c.72-.58,1.16-1.41,1.26-2.32.1-.92-.17-1.82-.75-2.53-.58-.72-1.41-1.16-2.33-1.26-1.9-.2-3.59,1.19-3.79,3.08h0c-.2,1.89,1.19,3.59,3.08,3.79.12.01.24.02.36.02.79,0,1.55-.27,2.17-.77ZM251.86,318.57c.14-1.34,1.35-2.32,2.69-2.19.65.07,1.24.38,1.65.89.41.51.6,1.15.54,1.8-.07.65-.38,1.24-.89,1.65-.51.41-1.14.6-1.8.54-1.34-.14-2.33-1.35-2.19-2.69h0Z"/>
            <path class="cls-4" d="M261.82,333.68c.22-.9.08-1.82-.39-2.61s-1.23-1.35-2.12-1.57c-.9-.22-1.82-.08-2.61.39-.79.48-1.35,1.23-1.57,2.12h0c-.22.89-.08,1.82.39,2.61.47.79,1.23,1.35,2.12,1.57.28.07.56.1.83.1,1.55,0,2.96-1.05,3.35-2.62ZM259.06,330.46c.63.16,1.17.55,1.51,1.11.34.56.44,1.22.28,1.86-.33,1.31-1.66,2.11-2.97,1.79-.64-.16-1.17-.55-1.51-1.12-.34-.56-.44-1.22-.28-1.85h0c.16-.64.55-1.17,1.11-1.51.39-.23.82-.35,1.26-.35.2,0,.4.02.6.07Z"/>
            <path class="cls-4" d="M249.14,333.42h0c1.77-.7,2.65-2.7,1.95-4.47-.7-1.77-2.71-2.65-4.47-1.95-1.77.7-2.65,2.7-1.95,4.47.53,1.36,1.84,2.19,3.22,2.19.42,0,.84-.08,1.26-.24ZM250.16,329.31c.49,1.26-.13,2.68-1.38,3.18-1.26.49-2.68-.13-3.18-1.38-.49-1.26.13-2.68,1.38-3.18.29-.12.6-.17.89-.17.98,0,1.91.59,2.29,1.55Z"/>
            <path class="cls-4" d="M240.29,341.27c.86-.34,1.53-.99,1.9-1.83.37-.85.39-1.78.05-2.64-.34-.86-.99-1.53-1.83-1.9-.85-.37-1.78-.38-2.64-.05-1.77.7-2.65,2.7-1.95,4.47.34.86.99,1.53,1.83,1.9.44.19.91.29,1.38.29.43,0,.85-.08,1.26-.24ZM241.3,337.16c.24.61.23,1.28-.03,1.88s-.74,1.06-1.35,1.3h0c-.61.24-1.27.23-1.88-.03-.6-.26-1.06-.74-1.3-1.35-.24-.61-.23-1.28.03-1.88s.74-1.06,1.35-1.3c.29-.12.6-.17.89-.17.98,0,1.91.59,2.29,1.55Z"/>
            <path class="cls-4" d="M251.72,345.79c.89-.24,1.63-.81,2.1-1.61.95-1.65.39-3.76-1.26-4.72-1.65-.95-3.76-.38-4.71,1.26h0c-.46.8-.58,1.73-.34,2.62s.81,1.63,1.61,2.09c.53.31,1.12.46,1.72.46.3,0,.6-.04.9-.12ZM252.05,340.33c1.17.68,1.57,2.18.9,3.35-.33.57-.86.97-1.49,1.14-.63.17-1.29.08-1.86-.25-.57-.33-.97-.86-1.14-1.49-.17-.63-.08-1.29.24-1.86h0c.68-1.17,2.18-1.57,3.35-.9Z"/>
            <polygon class="cls-4" points="242.82 346.53 244.42 346.53 244.42 344.16 242.82 344.16 242.82 346.53"/>
            <polygon class="cls-4" points="233 332.84 234.6 332.84 234.6 330.48 233 330.48 233 332.84"/>
            <polygon class="cls-4" points="259.15 325.6 260.74 325.6 260.74 323.23 259.15 323.23 259.15 325.6"/>
            <polygon class="cls-4" points="249.23 313.76 250.83 313.76 250.83 311.39 249.23 311.39 249.23 313.76"/>
            <path class="cls-4" d="M247.92,352.6c9.52-.91,11.54-3.64,15.96-9.62l.43-.58.08-.17c.25-.98.66-1.95,1.08-2.98,1.59-3.84,3.57-8.62.69-19.16-2.35-8.6-6.33-10.4-15.05-14.34l-1.62-.73c-.74-.34-1.59-.27-2.33.19-.87.55-1.45,1.56-1.47,2.58,0,.3-.08.59-.22.86-.97,1.88-.87,2.19-.8,2.4.03.1.09.19.16.25.34.73,1.3,6.04-.87,11.09-1.15,2.66-2.88,3.41-4.12,3.57-1.52.19-2.73-.4-2.88-.59-1.79-3.45-3.65-2.63-3.71-2.6-.82.34-1.29,1.16-1.66,1.82-.14.25-.35.62-.43.67-.64.19-1.07.07-1.52-.06-.42-.12-.89-.26-1.44-.08-1.65.52-2.29,4.43-1.94,11.97.17,3.63,2.08,7.21,5.4,10.08,4,3.48,9.43,5.51,14.52,5.51.59,0,1.17-.03,1.75-.08ZM229.36,326.16c.52.15,1.17.33,2.08.06.44-.13.71-.6,1.01-1.14.32-.56.68-1.19,1.18-1.4.38-.15,1.38.11,2.44,2.14.31.6,1.76,1.22,3.38,1.16,1.37-.05,3.9-.66,5.42-4.21,2.01-4.66,1.63-10.7.77-12.05.04-.16.18-.6.71-1.63.21-.4.32-.84.33-1.29h0c.02-.69.41-1.38,1-1.76.26-.16.79-.4,1.38-.13l1.62.74c8.68,3.92,12.27,5.55,14.5,13.69,2.79,10.21.88,14.81-.65,18.51-.43,1.03-.83,2.01-1.1,3.02l-.37.5c-4.37,5.91-6.17,8.35-15.25,9.22-5.22.5-11.32-1.54-15.52-5.18-3.1-2.7-4.9-6.02-5.05-9.37-.46-9.93.95-10.88,1.24-10.97.08-.02.16-.04.24-.04.17,0,.36.05.63.13ZM245.55,310.61s-.09-.08-.14-.11c.06.03.1.07.14.11Z"/>
            <path class="cls-2" d="M263.91,342.1"/>
            <path class="cls-2" d="M265.69,320.22"/>
            <path class="cls-2" d="M249.29,305.47"/>
          </g>
          <g>
            <polygon class="cls-4" points="139.28 180.55 138.19 181.48 135.43 178.22 136.52 177.3 139.28 180.55"/>
            <polygon class="cls-4" points="129.01 181.65 127.92 182.58 125.15 179.32 126.24 178.39 129.01 181.65"/>
            <polygon class="cls-4" points="130.93 174.5 129.92 173.49 132.94 170.46 133.95 171.48 130.93 174.5"/>
            <polygon class="cls-4" points="130.93 188.22 129.92 187.21 132.94 184.19 133.95 185.2 130.93 188.22"/>
            <polygon class="cls-4" points="132.42 207.18 131.25 207.18 131.25 197.45 132.42 197.45 132.42 207.18"/>
            <polygon class="cls-4" points="139.04 206.98 137.86 206.98 138.85 197.24 140.23 197.24 139.04 206.98"/>
            <polygon class="cls-4" points="126.09 207.18 124.7 207.18 123.43 197.45 124.94 197.45 126.09 207.18"/>
            <polygon class="cls-4" points="143.54 186.27 142.53 185.26 145.55 182.24 146.56 183.25 143.54 186.27"/>
            <polygon class="cls-4" points="118.39 185.42 117.38 184.41 120.4 181.39 121.42 182.4 118.39 185.42"/>
            <path class="cls-4" d="M118.25,193.36h27.43l.15-.14c.24-.23,5.88-5.75,5.9-12.15,0-2.91-1.16-5.53-3.48-7.78-2.76-2.69-4.79-3.64-6.23-2.91-.5.25-.86.69-1.12,1.22-.66-3.79-2.59-7.82-9.06-7.53-3.47.16-6.18,1.54-8.06,4.11-.88,1.2-1.47,2.56-1.85,3.84-.13-.31-.3-.59-.55-.82-.47-.44-1.15-.64-2.01-.58-1.61.11-3.33,1.14-4.6,2.77-1.26,1.61-3.21,5.27-2.1,11.69.75,4.32,2,7.01,3.72,7.98.52.29.98.37,1.33.37.24,0,.42-.04.53-.07ZM120.69,171.92c.55.51.55,1.71.55,2.88,0,.62,0,1.26.08,1.84.01.13.03.24.06.33l.97-.23c-.02-.09-.03-.19-.05-.3-.09-1.11.16-4.79,2.28-7.69,1.69-2.31,4.14-3.56,7.29-3.7,7.8-.36,8.16,6.12,8.39,10.4,0,.1,0,.19.02.29.01.39.04.73.07,1.01.02.24.04.45.07.65l.99-.15c-.19-1.32-.39-5.26,1.06-5.99.96-.49,2.76.48,5.08,2.74,2.11,2.06,3.18,4.43,3.17,7.06-.01,5.43-4.59,10.41-5.45,11.3h-27.09l-.18.03s-.47.15-1.11-.21c-.81-.46-2.31-2.02-3.23-7.28-1.05-6.04.74-9.42,1.9-10.9,1.1-1.4,2.55-2.29,3.88-2.39.08,0,.16,0,.24,0,.46,0,.79.1,1.02.32Z"/>
            <path class="cls-4" d="M141.97,212.34l4.11-19.99h-28.54l4.58,20.27,19.85-.29ZM144.86,193.36l-3.7,18-18.24.26-4.12-18.26h26.06Z"/>
          </g>
          <g>
            <polygon class="cls-4" points="174.27 289.93 173.18 290.85 170.41 287.59 171.51 286.67 174.27 289.93"/>
            <polygon class="cls-4" points="164 291.02 162.9 291.95 160.14 288.69 161.23 287.76 164 291.02"/>
            <polygon class="cls-4" points="165.92 283.87 164.91 282.86 167.93 279.84 168.94 280.85 165.92 283.87"/>
            <polygon class="cls-4" points="165.92 297.59 164.91 296.58 167.93 293.56 168.94 294.57 165.92 297.59"/>
            <polygon class="cls-4" points="167.41 316.56 166.24 316.56 166.24 306.82 167.41 306.82 167.41 316.56"/>
            <polygon class="cls-4" points="174.03 316.35 172.85 316.35 173.84 306.61 175.22 306.61 174.03 316.35"/>
            <polygon class="cls-4" points="161.08 316.56 159.69 316.56 158.42 306.82 159.92 306.82 161.08 316.56"/>
            <polygon class="cls-4" points="178.53 295.64 177.52 294.63 180.54 291.61 181.55 292.62 178.53 295.64"/>
            <polygon class="cls-4" points="153.38 294.79 152.37 293.78 155.39 290.76 156.4 291.77 153.38 294.79"/>
            <path class="cls-4" d="M153.24,302.73h27.43l.15-.14c.24-.23,5.88-5.75,5.9-12.15,0-2.91-1.16-5.53-3.48-7.78-2.76-2.69-4.79-3.64-6.23-2.91-.5.25-.86.69-1.12,1.22-.66-3.79-2.59-7.86-9.06-7.53-3.47.16-6.19,1.54-8.06,4.11-.88,1.2-1.47,2.55-1.85,3.84-.13-.31-.3-.59-.55-.82-.47-.44-1.15-.64-2.01-.58-1.61.11-3.33,1.14-4.6,2.77-1.26,1.61-3.21,5.26-2.1,11.69.75,4.32,2,7.01,3.72,7.98.52.29.98.37,1.33.37.24,0,.42-.04.53-.07ZM155.68,281.3c.55.51.55,1.71.55,2.88,0,.62,0,1.26.08,1.84.01.13.03.25.06.33l.97-.23c-.02-.1-.03-.2-.05-.3-.09-1.12.17-4.78,2.28-7.68,1.69-2.31,4.14-3.56,7.3-3.7,7.79-.34,8.16,6.12,8.39,10.4,0,.1.01.19.02.29.01.38.04.73.07,1,.02.24.04.46.07.65l.99-.15c-.19-1.32-.39-5.26,1.06-5.99.96-.49,2.76.48,5.08,2.74,2.11,2.06,3.18,4.43,3.17,7.06-.01,5.43-4.59,10.41-5.46,11.3h-27.09l-.17.03s-.5.16-1.16-.23c-.98-.58-2.33-2.31-3.19-7.26-1.05-6.04.74-9.42,1.9-10.9,1.1-1.4,2.55-2.29,3.88-2.38.08,0,.16,0,.24,0,.46,0,.79.11,1.02.32Z"/>
            <path class="cls-4" d="M176.96,321.71l4.11-19.98h-28.54l4.58,20.27,19.85-.29ZM179.85,302.73l-3.7,18-18.24.26-4.12-18.26h26.06Z"/>
          </g>
          <g>
            <polygon class="cls-4" points="199.82 79.61 200.64 79.61 201.47 71.62 200.69 71.62 199.82 79.61"/>
            <polygon class="cls-4" points="205.71 79.28 206.45 79.28 206.45 71.29 205.71 71.29 205.71 79.28"/>
            <polygon class="cls-4" points="211.99 79.28 212.79 79.28 211.91 71.29 211.18 71.29 211.99 79.28"/>
            <path class="cls-4" d="M212.21,59.53l-.35-.36c.7-.67,1.76-3.1.76-4.28-.91-1.07-2.12-4.28-1.38-5.86.28-.61.83-.93,1.57-.93v.5c-.55,0-.92.21-1.12.64-.62,1.34.49,4.35,1.31,5.33,1.22,1.44.05,4.16-.79,4.97Z"/>
            <path class="cls-4" d="M206.74,59.53l-.35-.36c.7-.67,1.76-3.1.76-4.28-.91-1.07-2.12-4.28-1.38-5.86.28-.61.83-.93,1.57-.93v.5c-.55,0-.92.21-1.12.64-.62,1.34.49,4.35,1.31,5.33,1.22,1.44.05,4.16-.79,4.97Z"/>
            <path class="cls-4" d="M200.77,59.53l-.35-.36c.7-.67,1.76-3.1.76-4.28-.91-1.07-2.12-4.28-1.38-5.86.28-.61.83-.93,1.57-.93v.5c-.55,0-.92.21-1.12.64-.62,1.34.49,4.35,1.31,5.33,1.23,1.45.05,4.16-.79,4.97Z"/>
            <path class="cls-4" d="M222.71,86.99c.67-.15,1.29-.57,1.81-1.24,1.27-1.62,1.89-4.47,1.52-7.09-.57-4.15-12.78-12.55-21.37-12.27-9.01.28-17.38,11.61-17.33,15.75.05,3.66,3.05,4.86,3.98,5.14l3.72,9.5h23.46l4.21-9.79ZM192.06,86.44l-.27-.05c-.14-.03-3.4-.73-3.45-4.25-.05-3.77,8.04-14.48,16.36-14.74,8.5-.24,19.88,8.02,20.35,11.4.32,2.34-.22,4.94-1.32,6.34-.44.56-.92.86-1.43.91l-.29.03-4.17,9.71h-22.12l-3.66-9.35Z"/>
            <path class="cls-4" d="M192.13,87.41c-.17,0-.34-.01-.52-.05l.17-.99c2.1.37,3.63-2.88,3.64-2.91l.67-1.47.28,1.59c.01.07.38,1.82,2.85,2.01,2.48.18,3.42-2.02,3.46-2.11l.42-1.03.5,1s1.18,2.35,3.21,2.6c1.93.24,3.09-2.54,3.11-2.57l.5-1.21.43,1.23s.85,2.35,2.7,2.53c1.84.19,3.3-2.31,3.31-2.34l.63-1.11.29,1.24c.02.07.58,2,4.6,2.2l-.05,1c-3.11-.15-4.5-1.29-5.09-2.12-.69.9-2.05,2.29-3.79,2.12-1.59-.16-2.57-1.36-3.09-2.25-.63,1.02-1.86,2.48-3.67,2.26-1.73-.21-2.91-1.52-3.52-2.38-.69.98-2.02,2.08-4.02,1.93-1.77-.13-2.8-.98-3.32-1.79-.66,1.05-1.95,2.6-3.69,2.6Z"/>
          </g>
          <g>
            <polygon class="cls-4" points="194.17 237.59 194.99 237.59 195.81 229.61 195.04 229.61 194.17 237.59"/>
            <polygon class="cls-4" points="200.06 237.26 200.79 237.26 200.79 229.28 200.06 229.28 200.06 237.26"/>
            <polygon class="cls-4" points="206.33 237.26 207.14 237.26 206.26 229.28 205.53 229.28 206.33 237.26"/>
            <path class="cls-4" d="M206.56,217.51l-.35-.36c.7-.67,1.76-3.1.76-4.28-.91-1.07-2.12-4.28-1.38-5.86.28-.61.83-.93,1.57-.93v.5c-.55,0-.92.21-1.12.64-.62,1.34.49,4.35,1.31,5.33,1.22,1.45.05,4.16-.79,4.97Z"/>
            <path class="cls-4" d="M201.08,217.51l-.35-.36c.7-.67,1.76-3.1.76-4.28-.91-1.07-2.12-4.28-1.38-5.86.28-.61.83-.93,1.57-.93v.5c-.55,0-.92.21-1.12.64-.62,1.34.49,4.35,1.31,5.33,1.22,1.45.05,4.16-.79,4.97Z"/>
            <path class="cls-4" d="M195.11,217.51l-.35-.36c.7-.67,1.76-3.1.76-4.28-.91-1.07-2.12-4.28-1.38-5.86.28-.61.83-.93,1.57-.93v.5c-.55,0-.92.21-1.12.64-.62,1.34.49,4.35,1.31,5.33,1.23,1.45.05,4.16-.79,4.97Z"/>
            <path class="cls-4" d="M217.06,244.98c.67-.15,1.29-.57,1.81-1.24,1.27-1.62,1.89-4.47,1.52-7.09-.57-4.15-12.79-12.52-21.37-12.27-9.01.28-17.38,11.61-17.33,15.75.05,3.66,3.05,4.86,3.98,5.14l3.72,9.5h23.46l4.21-9.79ZM186.41,244.42l-.27-.05c-.14-.03-3.4-.73-3.45-4.25-.05-3.77,8.04-14.48,16.36-14.74,8.47-.29,19.88,8.02,20.35,11.4.32,2.34-.22,4.94-1.32,6.34-.44.56-.92.86-1.43.91l-.29.03-4.17,9.71h-22.12l-3.66-9.35Z"/>
            <path class="cls-4" d="M186.48,245.4c-.17,0-.34-.01-.52-.05l.17-.98c2.1.36,3.63-2.88,3.64-2.91l.67-1.47.28,1.59c.01.07.38,1.82,2.85,2.01,2.49.19,3.42-2.02,3.46-2.11l.42-1.03.49,1s1.18,2.35,3.21,2.6c1.91.24,3.09-2.54,3.11-2.57l.5-1.21.43,1.23s.85,2.34,2.7,2.53c1.88.17,3.3-2.31,3.31-2.34l.63-1.11.29,1.25c.02.08.58,2,4.6,2.2l-.05,1c-3.11-.15-4.5-1.29-5.09-2.12-.69.9-2.06,2.3-3.79,2.12-1.59-.16-2.57-1.36-3.09-2.25-.63,1.02-1.86,2.49-3.67,2.26-1.73-.21-2.91-1.52-3.52-2.38-.69.98-2.02,2.07-4.02,1.93-1.78-.13-2.8-.98-3.32-1.79-.66,1.05-1.95,2.6-3.69,2.6Z"/>
          </g>
          <g>
            <path class="cls-4" d="M84.35,155.8h-35.57v15.75h35.57v-15.75ZM49.78,156.8h33.57v13.75h-33.57v-13.75Z"/>
            <path class="cls-4" d="M80.16,139.07h-28.08v17.73h28.08v-17.73ZM53.08,140.07h26.08v15.73h-26.08v-15.73Z"/>
            <polygon class="cls-4" points="55.12 166.83 49.03 161.31 49.53 160.76 55.11 165.81 60.72 160.53 66.56 165.81 72.28 160.53 78.12 165.81 83.59 160.76 84.1 161.31 78.12 166.83 72.29 161.54 66.56 166.83 60.73 161.55 55.12 166.83"/>
            <polygon class="cls-4" points="70.53 149.93 64.69 145.96 58.64 149.92 52.38 145.83 52.79 145.2 58.64 149.03 64.69 145.06 70.52 149.02 76.31 145.01 79.95 149.23 79.38 149.72 76.19 146.01 70.53 149.93"/>
            <rect class="cls-4" x="72.89" y="131.86" width="1" height="7.71"/>
            <rect class="cls-4" x="65.62" y="131.86" width="1" height="7.16"/>
            <rect class="cls-4" x="58.69" y="131.86" width="1" height="7.16"/>
            <rect class="cls-4" x="72.89" y="124.82" width="1" height="1.65"/>
            <rect class="cls-4" x="66.06" y="124.82" width="1" height="1.65"/>
            <rect class="cls-4" x="58.69" y="124.82" width="1" height="1.65"/>
          </g>
          <g>
            <polygon class="cls-4" points="49.37 232.28 49.82 231.9 33.93 212.93 33.48 213.31 49.37 232.28"/>
            <path class="cls-4" d="M48.36,241.07l5.71-4.79c.85-.71,1.37-1.71,1.46-2.81.1-1.1-.24-2.17-.95-3.02l-17.9-21.37c-.71-.85-1.71-1.37-2.81-1.46-1.1-.1-2.17.24-3.02.95l-5.71,4.78c-1.75,1.47-1.98,4.08-.51,5.83l17.9,21.37c.71.85,1.71,1.37,2.81,1.46.12.01.25.02.37.02.97,0,1.9-.34,2.65-.97ZM33.8,208.37c.9.08,1.72.5,2.3,1.2l17.9,21.37c.58.69.86,1.57.78,2.47-.08.9-.5,1.72-1.2,2.3l-5.71,4.79c-.69.58-1.58.86-2.47.78-.9-.08-1.72-.51-2.3-1.2l-17.9-21.37c-.58-.69-.86-1.57-.78-2.47.08-.9.51-1.72,1.2-2.3l5.71-4.78c.62-.52,1.38-.79,2.17-.79.1,0,.2,0,.3.01Z"/>
            <path class="cls-4" d="M26.04,213.21c-.26-.21-6.29-5.25-6.13-8.98.05-1.02.53-1.85,1.43-2.47.94-.65,1.98-.84,3.07-.56,3.75.95,6.97,7.17,7.11,7.43l-.89.46c-.03-.06-3.15-6.08-6.47-6.92-.82-.21-1.56-.07-2.26.41-.64.44-.97.99-1,1.69-.12,2.68,4.12,6.8,5.77,8.16l-.64.77Z"/>
            <path class="cls-4" d="M56.02,249.01c-.14,0-.29-.01-.43-.03-3.74-.5-7.74-7.65-7.91-7.96l.88-.48c1.08,1.95,4.48,7.09,7.17,7.45.68.09,1.27-.13,1.8-.67.59-.6.85-1.31.8-2.15-.23-3.52-5.75-7.89-5.8-7.94l.62-.79c.24.19,5.92,4.7,6.18,8.66.07,1.13-.29,2.11-1.08,2.92-.65.66-1.39.99-2.21,1Z"/>
          </g>
          <g>
            <path class="cls-4" d="M333.5-9.33c1.65-.43,3.07-1.71,3.9-3.52,1.58-3.44.62-7.86-2.13-9.86-1.27-.92-2.77-1.22-4.22-.84-1.65.43-3.07,1.71-3.9,3.52-1.58,3.44-.62,7.86,2.13,9.86.91.66,1.94,1,2.99,1,.41,0,.82-.05,1.23-.16ZM334.68-21.9c2.39,1.73,3.21,5.61,1.81,8.64-.7,1.53-1.89,2.61-3.24,2.97-1.15.3-2.35.06-3.38-.69-2.39-1.73-3.21-5.61-1.81-8.64h0c.7-1.53,1.89-2.61,3.24-2.97.32-.08.65-.13.97-.13.84,0,1.67.28,2.4.81Z"/>
            <path class="cls-4" d="M336.18,7.53c5.48-1.44,10.23-5.7,13.02-11.68,5.41-11.6,2.17-26.5-7.21-33.21-4.25-3.04-9.24-4.02-14.04-2.76-5.48,1.44-10.23,5.7-13.02,11.68h0c-5.41,11.6-2.17,26.5,7.21,33.21,3.04,2.17,6.46,3.29,9.91,3.29,1.38,0,2.76-.18,4.13-.54ZM315.83-28.02c2.66-5.72,7.17-9.78,12.37-11.14,4.51-1.19,9.2-.26,13.2,2.6,9.01,6.45,12.1,20.79,6.89,31.97-2.66,5.71-7.17,9.78-12.37,11.14-4.51,1.19-9.2.26-13.2-2.6-9.01-6.44-12.1-20.79-6.89-31.97h0Z"/>
            <polygon class="cls-4" points="328.75 -30.82 329.69 -29.74 333.58 -33.14 332.64 -34.22 328.75 -30.82"/>
            <polygon class="cls-4" points="340.71 -25.7 341.79 -26.64 338.39 -30.53 337.31 -29.59 340.71 -25.7"/>
            <polygon class="cls-4" points="325.37 -24.42 326.49 -25.3 323.31 -29.37 322.18 -28.49 325.37 -24.42"/>
            <polygon class="cls-4" points="317.14 -17.98 318.08 -16.9 321.97 -20.29 321.03 -21.37 317.14 -17.98"/>
            <polygon class="cls-4" points="323.25 -7.64 324.32 -8.58 320.93 -12.47 319.85 -11.53 323.25 -7.64"/>
            <polygon class="cls-4" points="343.4 -8.66 344.41 -9.67 340.76 -13.32 339.75 -12.31 343.4 -8.66"/>
            <polygon class="cls-4" points="347.04 -20.72 345.91 -21.61 342.72 -17.55 343.84 -16.67 347.04 -20.72"/>
            <path class="cls-4" d="M324.61-.36c-1.84,0-2.35-.9-2.85-1.77-.67-1.19-1.51-2.66-6.82-2.71v-1c5.89.05,6.93,1.88,7.69,3.22.48.85.74,1.31,2.14,1.27,1.75-.06,2.19-.9,2.75-1.96.6-1.15,1.31-2.56,4.04-2.52,2.25.04,3.54,1.61,4.58,2.87.7.85,1.3,1.59,1.97,1.61.52,0,1.15-.38,1.91-1.19,4.21-4.46,8.99-3.13,9.19-3.07l-.28.96c-.18-.05-4.41-1.21-8.18,2.79-.99,1.05-1.88,1.55-2.67,1.5-1.12-.04-1.89-.98-2.71-1.97-1-1.22-2.04-2.48-3.82-2.51-2.1-.04-2.55.86-3.14,1.99-.59,1.13-1.27,2.41-3.6,2.49-.07,0-.13,0-.2,0Z"/>
          </g>
          <g>
            <path class="cls-4" d="M44.02,350.42c1.89-.2,3.27-1.9,3.08-3.79h0c-.1-.92-.54-1.74-1.26-2.32-.72-.58-1.62-.85-2.53-.75-1.89.2-3.27,1.9-3.08,3.79.18,1.77,1.69,3.1,3.43,3.1.12,0,.24,0,.36-.02ZM45.21,345.08c.51.41.83,1,.89,1.65h0c.14,1.34-.84,2.55-2.19,2.69-1.35.15-2.55-.84-2.69-2.19-.14-1.34.84-2.55,2.19-2.69.09,0,.17-.01.26-.01.56,0,1.1.19,1.54.55Z"/>
            <path class="cls-4" d="M40.33,364.35c.89-.22,1.65-.78,2.12-1.57.48-.79.61-1.72.39-2.61-.46-1.85-2.34-2.98-4.18-2.52-1.85.46-2.98,2.34-2.52,4.18.22.9.78,1.65,1.57,2.12.54.33,1.15.5,1.77.5.28,0,.56-.03.84-.1ZM41.88,360.41h0c.16.63.06,1.29-.28,1.86-.34.56-.87.96-1.51,1.11-.64.16-1.29.06-1.86-.28-.56-.34-.96-.87-1.11-1.51-.33-1.31.48-2.64,1.79-2.97.2-.05.4-.07.59-.07,1.1,0,2.1.75,2.38,1.86Z"/>
            <path class="cls-4" d="M53.3,359.63c.7-1.77-.18-3.78-1.95-4.47-.86-.34-1.8-.32-2.64.05-.85.37-1.5,1.04-1.83,1.9-.34.86-.32,1.79.05,2.64s1.04,1.5,1.9,1.83h0c.41.16.84.24,1.26.24,1.38,0,2.68-.83,3.22-2.19ZM49.19,360.65c-.61-.24-1.09-.7-1.35-1.3-.26-.6-.27-1.27-.03-1.88s.7-1.09,1.3-1.35,1.27-.27,1.88-.03c1.26.5,1.88,1.92,1.38,3.18-.49,1.26-1.92,1.87-3.18,1.38h0Z"/>
            <path class="cls-4" d="M60.32,369.38c.85-.37,1.5-1.04,1.83-1.9.7-1.77-.18-3.78-1.95-4.48-1.77-.7-3.78.18-4.47,1.95-.7,1.77.18,3.78,1.95,4.47.41.16.84.24,1.26.24.47,0,.94-.1,1.38-.29ZM59.84,363.93c1.26.5,1.88,1.92,1.38,3.18-.24.61-.7,1.09-1.3,1.35-.6.26-1.27.27-1.88.03-1.26-.5-1.88-1.92-1.38-3.18.38-.96,1.31-1.55,2.29-1.55.3,0,.6.05.89.17Z"/>
            <path class="cls-4" d="M48.86,373.6c1.65-.95,2.21-3.07,1.26-4.71h0c-.46-.8-1.21-1.37-2.1-1.61-.89-.24-1.82-.12-2.62.35-1.65.95-2.21,3.07-1.26,4.71.64,1.11,1.8,1.72,3,1.72.58,0,1.18-.15,1.72-.46ZM47.77,368.25c.63.17,1.16.57,1.49,1.14h0c.68,1.17.27,2.67-.9,3.35-1.17.67-2.67.27-3.35-.9-.68-1.17-.27-2.67.9-3.35.38-.22.8-.33,1.22-.33.21,0,.43.03.64.08Z"/>
            <rect class="cls-4" x="53.55" y="372.32" width="1.6" height="2.37"/>
            <rect class="cls-4" x="63.37" y="358.63" width="1.6" height="2.37"/>
            <rect class="cls-4" x="37.22" y="351.39" width="1.6" height="2.37"/>
            <rect class="cls-4" x="47.14" y="339.55" width="1.6" height="2.37"/>
            <path class="cls-4" d="M66.32,375.33c3.31-2.88,5.23-6.46,5.39-10.08.35-7.54-.29-11.45-1.94-11.97-.55-.17-1.02-.04-1.44.08-.45.13-.88.25-1.49.07-.1-.06-.32-.44-.46-.68-.38-.66-.85-1.48-1.64-1.82-.08-.04-1.94-.86-3.72,2.57-.16.21-1.37.8-2.89.61-1.25-.16-2.97-.91-4.12-3.57-2.17-5.03-1.22-10.32-.88-11.08l.1-.07.06-.2c.07-.21.17-.52-.8-2.4-.14-.27-.21-.56-.22-.86h0c-.02-1.02-.6-2.03-1.47-2.58-.74-.46-1.58-.53-2.33-.19l-1.62.73c-8.72,3.94-12.71,5.74-15.06,14.34-2.88,10.54-.9,15.32.69,19.16.43,1.03.83,2,1.08,2.98l.51.75c4.42,5.98,6.44,8.71,15.96,9.62.58.05,1.16.08,1.75.08,5.1,0,10.52-2.03,14.53-5.51ZM33.41,367.02c-1.53-3.7-3.44-8.3-.65-18.51,2.23-8.15,5.82-9.77,14.5-13.7l1.62-.73c.59-.27,1.12-.03,1.38.13.59.37.99,1.06,1.01,1.76h0c.01.45.12.89.33,1.29.52,1,.69,1.5.72,1.67-.7,1.34-1.4,7,.76,12.01,1.53,3.55,4.06,4.16,5.43,4.21,1.59.06,3.06-.57,3.37-1.16,1.05-2.03,2.05-2.29,2.44-2.14.5.21.86.84,1.18,1.4.31.54.57,1,1.01,1.14.92.28,1.56.09,2.08-.06.38-.11.61-.17.87-.09.29.09,1.7,1.04,1.24,10.97-.15,3.35-1.95,6.68-5.05,9.37-4.2,3.65-10.3,5.68-15.52,5.19-9.08-.86-10.89-3.31-15.25-9.22l-.37-.5c-.27-1.01-.67-1.99-1.1-3.02ZM53,339.55l.08-.05s-.05.04-.08.05ZM52.34,338.91c.02-.08.08-.19.21-.25-.07.04-.14.12-.21.25Z"/>
            <path class="cls-2" d="M34.05,370.26"/>
            <path class="cls-2" d="M32.28,348.38"/>
            <path class="cls-2" d="M48.68,333.63"/>
          </g>
          <g>
            <path class="cls-4" d="M199.62,367.01h-35.57v15.75h35.57v-15.75ZM165.05,368.01h33.57v13.75h-33.57v-13.75Z"/>
            <path class="cls-4" d="M196.31,350.28h-28.08v17.73h28.08v-17.73ZM169.23,351.28h26.08v15.73h-26.08v-15.73Z"/>
            <polygon class="cls-4" points="193.28 378.04 187.66 372.75 181.83 378.04 176.11 372.75 170.27 378.04 164.29 372.52 164.8 371.97 170.28 377.02 176.11 371.74 181.84 377.02 187.67 371.73 193.29 377.02 198.87 371.97 199.37 372.52 193.28 378.04"/>
            <polygon class="cls-4" points="177.87 361.14 172.21 357.22 169.02 360.93 168.45 360.44 172.08 356.22 177.87 360.23 183.7 356.27 189.76 360.24 195.61 356.41 196.02 357.03 189.76 361.13 183.71 357.17 177.87 361.14"/>
            <rect class="cls-4" x="174.51" y="343.07" width="1" height="7.71"/>
            <rect class="cls-4" x="181.77" y="343.07" width="1" height="7.16"/>
            <rect class="cls-4" x="188.71" y="343.07" width="1" height="7.16"/>
            <rect class="cls-4" x="174.51" y="336.02" width="1" height="1.65"/>
            <rect class="cls-4" x="181.33" y="336.02" width="1" height="1.65"/>
            <rect class="cls-4" x="188.71" y="336.02" width="1" height="1.65"/>
          </g>
          <g>
            <path class="cls-4" d="M333.5,350.67c1.65-.43,3.07-1.71,3.9-3.52,1.58-3.44.62-7.87-2.13-9.86-1.27-.92-2.77-1.22-4.22-.84-1.65.43-3.07,1.71-3.9,3.52h0c-1.58,3.44-.62,7.86,2.13,9.86.91.66,1.94,1,2.99,1,.41,0,.82-.05,1.23-.16ZM334.68,338.1c2.39,1.73,3.21,5.61,1.81,8.64-.7,1.53-1.89,2.61-3.24,2.97-1.15.3-2.35.06-3.38-.69-2.39-1.73-3.21-5.61-1.81-8.64h0c.7-1.53,1.89-2.61,3.24-2.97.32-.08.65-.13.97-.13.84,0,1.67.28,2.4.81Z"/>
            <path class="cls-4" d="M336.18,367.53c5.48-1.44,10.23-5.7,13.02-11.69,5.41-11.6,2.17-26.5-7.21-33.21-4.25-3.04-9.23-4.02-14.04-2.76-5.48,1.44-10.23,5.7-13.02,11.68h0c-5.41,11.6-2.17,26.5,7.21,33.21,3.04,2.17,6.46,3.29,9.91,3.29,1.38,0,2.76-.18,4.13-.54ZM328.19,320.84c4.51-1.19,9.2-.26,13.2,2.6,9.01,6.45,12.1,20.79,6.89,31.97-2.66,5.71-7.17,9.78-12.37,11.14-4.51,1.19-9.2.26-13.2-2.6-9.01-6.45-12.1-20.79-6.89-31.98h0c2.66-5.71,7.17-9.77,12.37-11.14Z"/>
            <polygon class="cls-4" points="328.75 329.18 329.69 330.26 333.58 326.86 332.64 325.78 328.75 329.18"/>
            <polygon class="cls-4" points="340.71 334.3 341.79 333.36 338.39 329.47 337.31 330.41 340.71 334.3"/>
            <polygon class="cls-4" points="325.37 335.58 326.49 334.7 323.31 330.63 322.18 331.51 325.37 335.58"/>
            <polygon class="cls-4" points="317.14 342.02 318.08 343.1 321.97 339.71 321.03 338.63 317.14 342.02"/>
            <polygon class="cls-4" points="323.25 352.36 324.32 351.42 320.93 347.53 319.85 348.47 323.25 352.36"/>
            <polygon class="cls-4" points="343.4 351.34 344.41 350.33 340.76 346.68 339.75 347.69 343.4 351.34"/>
            <polygon class="cls-4" points="347.04 339.28 345.91 338.39 342.72 342.45 343.84 343.33 347.04 339.28"/>
            <path class="cls-4" d="M324.61,359.64c-1.84,0-2.35-.9-2.85-1.77-.67-1.19-1.51-2.67-6.82-2.71v-1c5.9.05,6.93,1.88,7.69,3.22.48.85.74,1.31,2.14,1.27,1.75-.06,2.19-.9,2.75-1.96.59-1.13,1.33-2.53,3.91-2.53.04,0,.09,0,.13,0,2.25.04,3.54,1.61,4.58,2.87.7.85,1.3,1.58,1.97,1.61.52-.02,1.15-.38,1.91-1.19,4.21-4.46,8.99-3.12,9.19-3.07l-.28.96c-.18-.05-4.41-1.21-8.18,2.79-.99,1.05-1.84,1.53-2.68,1.5-1.12-.04-1.89-.98-2.71-1.97-1-1.22-2.04-2.48-3.82-2.51-2.1-.04-2.55.86-3.14,1.99-.59,1.13-1.27,2.41-3.6,2.49-.07,0-.13,0-.2,0Z"/>
          </g>
          <g>
            <polygon class="cls-4" points="284.38 33.43 283.56 33.43 282.73 25.44 283.51 25.44 284.38 33.43"/>
            <rect class="cls-4" x="277.75" y="25.11" width=".73" height="7.98"/>
            <polygon class="cls-4" points="272.21 33.1 271.41 33.1 272.29 25.11 273.02 25.11 272.21 33.1"/>
            <path class="cls-4" d="M271.99,13.35c-.84-.81-2.02-3.52-.79-4.97.83-.97,1.93-3.99,1.31-5.33-.2-.43-.57-.64-1.12-.64v-.5c.75,0,1.29.32,1.57.93.73,1.58-.48,4.79-1.38,5.86-1,1.18.06,3.61.76,4.28l-.35.36Z"/>
            <path class="cls-4" d="M277.46,13.35c-.84-.81-2.02-3.52-.79-4.97.83-.97,1.93-3.99,1.31-5.33-.2-.43-.57-.64-1.12-.64v-.5c.75,0,1.29.32,1.57.93.73,1.58-.48,4.79-1.38,5.86-1,1.18.06,3.61.76,4.28l-.35.36Z"/>
            <path class="cls-4" d="M283.43,13.35c-.84-.81-2.02-3.52-.79-4.97.83-.97,1.93-3.99,1.31-5.33-.2-.43-.57-.65-1.12-.65v-.5c.75,0,1.29.32,1.57.94.73,1.58-.48,4.79-1.38,5.86-1,1.18.06,3.61.76,4.28l-.35.36Z"/>
            <path class="cls-4" d="M292.88,41.11c.93-.28,3.93-1.48,3.98-5.14.06-4.14-8.32-15.47-17.33-15.75-8.6-.28-20.8,8.12-21.37,12.27-.36,2.63.25,5.48,1.52,7.09.53.67,1.15,1.09,1.81,1.24l4.21,9.79h23.46l3.72-9.5ZM262.18,39.89l-.29-.03c-.51-.05-.99-.36-1.43-.91-1.1-1.39-1.64-4-1.32-6.34.47-3.39,11.79-11.65,20.35-11.4,8.32.26,16.41,10.98,16.36,14.74-.05,3.5-3.32,4.22-3.45,4.25l-.27.06-3.66,9.35h-22.12l-4.17-9.71Z"/>
            <path class="cls-4" d="M292.07,41.23c-1.75,0-3.03-1.55-3.69-2.6-.52.81-1.55,1.66-3.32,1.79-2,.15-3.33-.95-4.02-1.93-.6.86-1.79,2.17-3.52,2.38-1.82.22-3.04-1.24-3.67-2.26-.52.88-1.5,2.09-3.09,2.25-1.73.17-3.1-1.22-3.79-2.12-.6.82-1.98,1.97-5.09,2.12l-.05-1c4.03-.2,4.58-2.13,4.6-2.21l.31-1.18.61,1.05s1.5,2.53,3.31,2.34c1.86-.19,2.69-2.51,2.7-2.53l.43-1.24.5,1.22s1.2,2.81,3.11,2.57c2.03-.25,3.2-2.58,3.21-2.6l.49-1,.42,1.03c.04.09.97,2.3,3.46,2.11,2.5-.19,2.84-1.99,2.85-2.01l.28-1.59.67,1.47s1.54,3.28,3.64,2.91l.17.99c-.18.03-.35.05-.52.05Z"/>
          </g>
          <g>
            <polygon class="cls-4" points="356.98 62.73 356.53 62.36 372.42 43.39 372.87 43.77 356.98 62.73"/>
            <path class="cls-4" d="M363.82,71.02l17.9-21.37c1.47-1.75,1.23-4.36-.51-5.83l-5.71-4.79c-1.75-1.47-4.37-1.23-5.83.51l-17.9,21.37c-1.47,1.75-1.23,4.36.51,5.83l5.71,4.79c.77.65,1.72.96,2.65.96,1.18,0,2.36-.5,3.17-1.48ZM352.77,66.17c-1.43-1.2-1.62-3.34-.42-4.77l17.9-21.37c1.2-1.43,3.34-1.62,4.77-.42l5.71,4.79c1.43,1.2,1.62,3.34.42,4.77l-17.9,21.37c-1.2,1.43-3.34,1.62-4.77.42l-5.71-4.79Z"/>
            <path class="cls-4" d="M380.31,43.67l-.64-.77c1.64-1.36,5.89-5.48,5.76-8.16-.03-.7-.36-1.25-1-1.69-.71-.49-1.45-.62-2.26-.41-3.32.84-6.43,6.86-6.46,6.92l-.89-.46c.14-.26,3.36-6.48,7.11-7.43,1.09-.28,2.13-.09,3.07.56.91.62,1.39,1.45,1.43,2.47.17,3.73-5.87,8.77-6.13,8.98Z"/>
            <path class="cls-4" d="M350.33,79.47c-.82,0-1.57-.33-2.21-.99-.79-.81-1.15-1.79-1.08-2.92.26-3.96,5.94-8.47,6.18-8.66l.62.79c-.06.04-5.57,4.42-5.8,7.94-.05.85.21,1.55.8,2.15.53.54,1.12.77,1.8.67,2.7-.36,6.09-5.5,7.17-7.45l.88.49c-.17.3-4.17,7.45-7.91,7.96-.15.02-.29.03-.43.03Z"/>
          </g>
          <g>
            <path class="cls-4" d="M343.11,206.04c.2-1.89-1.19-3.59-3.08-3.79-1.89-.2-3.59,1.19-3.79,3.08h0c-.2,1.89,1.19,3.59,3.08,3.79.12.01.24.02.36.02,1.75,0,3.25-1.32,3.43-3.1ZM339.93,203.24c1.34.14,2.33,1.35,2.19,2.69-.14,1.34-1.35,2.32-2.69,2.19-1.34-.14-2.33-1.35-2.19-2.69h0c.14-1.34,1.35-2.33,2.69-2.19Z"/>
            <path class="cls-4" d="M347.2,220.53c.46-1.85-.67-3.72-2.52-4.18-.89-.22-1.82-.08-2.61.39-.79.48-1.35,1.23-1.57,2.12h0c-.22.89-.08,1.82.39,2.61.47.79,1.23,1.35,2.12,1.57.28.07.56.1.83.1,1.55,0,2.96-1.05,3.35-2.62ZM344.44,217.32c1.31.33,2.11,1.66,1.79,2.97-.33,1.31-1.66,2.11-2.97,1.79-.64-.16-1.17-.55-1.51-1.12-.34-.56-.44-1.22-.28-1.85h0c.28-1.12,1.28-1.86,2.38-1.86.19,0,.39.02.59.07Z"/>
            <path class="cls-4" d="M334.52,220.28h0c1.77-.7,2.65-2.7,1.95-4.47-.7-1.77-2.7-2.65-4.47-1.95-.86.34-1.53.99-1.9,1.83-.37.85-.38,1.78-.05,2.64.53,1.36,1.84,2.19,3.22,2.19.42,0,.84-.08,1.26-.24ZM335.54,216.17c.49,1.26-.13,2.68-1.38,3.18-1.26.49-2.68-.13-3.18-1.38-.49-1.26.13-2.68,1.38-3.18.29-.12.6-.17.89-.17.98,0,1.91.59,2.29,1.55Z"/>
            <path class="cls-4" d="M325.67,228.12h0c1.77-.7,2.65-2.7,1.95-4.47-.34-.86-.99-1.53-1.83-1.9-.84-.37-1.78-.38-2.64-.05-.86.34-1.53.99-1.9,1.83-.37.85-.39,1.78-.05,2.64.34.86.99,1.53,1.83,1.9.44.19.91.29,1.38.29.43,0,.85-.08,1.26-.24ZM325.38,222.67c.6.26,1.06.74,1.3,1.35.49,1.26-.13,2.68-1.38,3.18-1.26.49-2.68-.13-3.18-1.38-.24-.61-.23-1.28.03-1.88s.74-1.06,1.35-1.3c.29-.11.59-.17.9-.17.33,0,.66.07.98.21Z"/>
            <path class="cls-4" d="M339.2,231.04c.95-1.65.39-3.76-1.26-4.72-1.65-.95-3.76-.38-4.71,1.26h0c-.95,1.65-.38,3.76,1.26,4.71.54.31,1.13.46,1.72.46,1.19,0,2.36-.62,3-1.72ZM337.43,227.19c1.17.68,1.57,2.18.9,3.35-.68,1.17-2.18,1.57-3.35.9-.57-.33-.97-.86-1.14-1.49-.17-.63-.08-1.29.24-1.86h0c.68-1.17,2.18-1.57,3.35-.9Z"/>
            <polygon class="cls-4" points="328.2 233.39 329.8 233.39 329.8 231.02 328.2 231.02 328.2 233.39"/>
            <polygon class="cls-4" points="318.38 219.7 319.98 219.7 319.98 217.33 318.38 217.33 318.38 219.7"/>
            <polygon class="cls-4" points="344.53 212.46 346.12 212.46 346.12 210.09 344.53 210.09 344.53 212.46"/>
            <polygon class="cls-4" points="334.61 200.61 336.21 200.61 336.21 198.25 334.61 198.25 334.61 200.61"/>
            <path class="cls-4" d="M333.3,239.46c9.52-.91,11.54-3.64,15.96-9.62l.43-.58.08-.17c.25-.98.66-1.95,1.08-2.98,1.59-3.84,3.57-8.62.69-19.16-2.35-8.6-6.33-10.4-15.06-14.34l-1.62-.73c-.74-.34-1.59-.27-2.33.19-.87.55-1.45,1.56-1.47,2.58,0,.3-.08.59-.22.86-.97,1.88-.87,2.21-.8,2.4.03.1.09.19.16.26.34.73,1.3,6.04-.87,11.09-1.15,2.66-2.88,3.41-4.12,3.57-1.51.19-2.73-.4-2.88-.59-1.79-3.45-3.65-2.63-3.71-2.6-.82.34-1.29,1.16-1.66,1.82-.14.25-.35.62-.43.67-.64.19-1.07.07-1.52-.06-.42-.12-.89-.26-1.44-.08-1.65.52-2.29,4.43-1.94,11.97.17,3.63,2.08,7.21,5.39,10.08,4,3.48,9.43,5.51,14.53,5.51.59,0,1.17-.03,1.75-.08ZM314.74,213.02c.52.15,1.17.34,2.08.06.44-.13.71-.6,1.01-1.14.32-.56.68-1.19,1.18-1.4.38-.15,1.38.11,2.44,2.14.31.6,1.78,1.23,3.37,1.16,1.37-.05,3.9-.66,5.43-4.21,2.01-4.67,1.63-10.71.77-12.05.05-.2.23-.7.71-1.63.21-.4.32-.84.33-1.29h0c.02-.69.41-1.38,1.01-1.76.26-.16.79-.4,1.38-.13l1.62.73c8.68,3.92,12.28,5.55,14.5,13.7,2.79,10.21.88,14.81-.65,18.51-.43,1.03-.83,2.01-1.1,3.02l-.37.5c-4.37,5.91-6.17,8.35-15.25,9.22-5.21.5-11.32-1.54-15.52-5.18-3.1-2.7-4.9-6.02-5.05-9.37-.46-9.93.95-10.88,1.24-10.97.08-.03.16-.04.24-.04.17,0,.36.05.62.13ZM330.93,197.46s-.09-.08-.14-.11c.06.03.1.07.14.11Z"/>
            <path class="cls-2" d="M349.29,228.96"/>
            <path class="cls-2" d="M351.07,207.08"/>
            <path class="cls-2" d="M334.67,192.33"/>
          </g>
          <g>
            <polygon class="cls-4" points="370.58 133.69 369.49 134.61 366.72 131.36 367.81 130.43 370.58 133.69"/>
            <polygon class="cls-4" points="360.3 134.78 359.21 135.71 356.44 132.45 357.54 131.53 360.3 134.78"/>
            <polygon class="cls-4" points="362.23 127.63 361.22 126.62 364.24 123.6 365.25 124.61 362.23 127.63"/>
            <polygon class="cls-4" points="362.23 141.36 361.22 140.34 364.24 137.32 365.25 138.33 362.23 141.36"/>
            <polygon class="cls-4" points="363.72 160.32 362.54 160.32 362.54 150.58 363.72 150.58 363.72 160.32"/>
            <polygon class="cls-4" points="370.34 160.11 369.16 160.11 370.15 150.38 371.53 150.38 370.34 160.11"/>
            <polygon class="cls-4" points="357.39 160.32 355.99 160.32 354.72 150.58 356.23 150.58 357.39 160.32"/>
            <polygon class="cls-4" points="374.83 139.4 373.82 138.39 376.84 135.37 377.86 136.38 374.83 139.4"/>
            <polygon class="cls-4" points="349.69 138.55 348.68 137.54 351.7 134.52 352.71 135.53 349.69 138.55"/>
            <path class="cls-4" d="M349.54,146.49h27.43l.15-.14c.24-.23,5.88-5.75,5.9-12.15,0-2.91-1.16-5.53-3.48-7.78-2.76-2.69-4.79-3.64-6.23-2.91-.5.25-.86.69-1.12,1.22-.66-3.79-2.58-7.82-9.06-7.53-3.47.16-6.18,1.54-8.06,4.11-.88,1.2-1.47,2.56-1.85,3.84-.13-.31-.3-.59-.55-.82-.47-.44-1.15-.64-2.01-.58-1.61.11-3.33,1.14-4.6,2.77-1.26,1.61-3.21,5.26-2.09,11.69.75,4.32,2,7.01,3.72,7.98.52.29.98.37,1.33.37.24,0,.42-.04.53-.07ZM351.99,125.06c.55.51.55,1.71.55,2.88,0,.62,0,1.26.08,1.84.01.13.03.24.06.33l.97-.23c-.02-.1-.03-.19-.05-.3-.09-1.11.16-4.79,2.28-7.69,1.69-2.31,4.14-3.56,7.29-3.7,7.84-.36,8.16,6.12,8.39,10.4,0,.09,0,.19.01.28.01.4.04.75.07,1.03.02.23.04.45.07.64l.99-.15c-.19-1.32-.39-5.26,1.06-5.99.96-.48,2.76.48,5.08,2.74,2.11,2.06,3.18,4.43,3.17,7.06-.01,5.43-4.59,10.41-5.45,11.3h-27.09l-.17.03s-.5.16-1.16-.23c-.98-.58-2.33-2.31-3.19-7.26-1.05-6.04.74-9.42,1.9-10.9,1.1-1.4,2.55-2.29,3.88-2.39.08,0,.16,0,.24,0,.46,0,.79.1,1.02.32Z"/>
            <path class="cls-4" d="M373.27,165.48l4.11-19.98h-28.54l4.58,20.27,19.85-.29ZM376.16,146.49l-3.7,18-18.24.26-4.12-18.26h26.06Z"/>
          </g>
          <g>
            <path class="cls-4" d="M25.21,273.94H-10.36v15.75H25.21v-15.75ZM-9.36,274.94H24.21v13.75H-9.36v-13.75Z"/>
            <path class="cls-4" d="M21.91,257.21H-6.18v17.73h28.08v-17.73ZM-5.18,258.21h26.08v15.73H-5.18v-15.73Z"/>
            <polygon class="cls-4" points="18.87 284.97 13.25 279.69 7.42 284.97 1.7 279.68 -4.14 284.97 -10.11 279.45 -9.6 278.9 -4.13 283.95 1.7 278.67 7.43 283.95 13.26 278.66 18.88 283.95 24.46 278.9 24.96 279.45 18.87 284.97"/>
            <polygon class="cls-4" points="3.46 268.07 -2.2 264.15 -5.39 267.86 -5.96 267.37 -2.33 263.15 3.46 267.16 9.29 263.2 15.35 267.17 21.2 263.34 21.61 263.97 15.35 268.06 9.3 264.1 3.46 268.07"/>
            <rect class="cls-4" x=".1" y="250" width="1" height="7.71"/>
            <rect class="cls-4" x="7.37" y="250" width="1" height="7.16"/>
            <rect class="cls-4" x="14.3" y="250" width="1" height="7.16"/>
            <rect class="cls-4" x=".1" y="242.95" width="1" height="1.65"/>
            <rect class="cls-4" x="6.92" y="242.95" width="1" height="1.65"/>
            <rect class="cls-4" x="14.3" y="242.95" width="1" height="1.65"/>
          </g>
          <g>
            <polygon class="cls-4" points="-3.02 62.73 -3.47 62.36 12.42 43.39 12.87 43.77 -3.02 62.73"/>
            <path class="cls-4" d="M3.82,71.02l17.9-21.37c1.47-1.75,1.23-4.36-.51-5.83l-5.71-4.79c-.85-.71-1.92-1.05-3.02-.95-1.1.1-2.1.62-2.81,1.46l-17.9,21.37c-1.47,1.75-1.23,4.36.51,5.83l5.71,4.79c.77.65,1.72.96,2.65.96,1.18,0,2.36-.5,3.18-1.48ZM-7.24,66.17c-1.43-1.2-1.62-3.34-.42-4.77l17.9-21.37c.58-.69,1.4-1.12,2.3-1.2.9-.08,1.78.2,2.47.78l5.71,4.79c1.43,1.2,1.62,3.34.42,4.77L3.25,70.54c-1.2,1.43-3.34,1.62-4.77.42l-5.71-4.79Z"/>
            <path class="cls-4" d="M20.31,43.67l-.64-.77c1.65-1.36,5.89-5.48,5.77-8.16-.03-.7-.36-1.25-1-1.69-.71-.48-1.45-.62-2.26-.41-3.31.84-6.44,6.86-6.47,6.92l-.89-.46c.14-.26,3.36-6.48,7.11-7.43,1.1-.28,2.13-.09,3.07.56.91.62,1.39,1.45,1.44,2.47.17,3.73-5.87,8.77-6.13,8.98Z"/>
            <path class="cls-4" d="M-9.67,79.47c-.82,0-1.57-.33-2.22-.99-.79-.81-1.15-1.79-1.08-2.92.26-3.96,5.94-8.47,6.18-8.66l.62.79c-.06.04-5.57,4.42-5.8,7.94-.06.85.21,1.55.8,2.15.53.54,1.12.76,1.8.67,2.7-.36,6.09-5.5,7.17-7.45l.88.49c-.17.3-4.17,7.45-7.91,7.96-.15.02-.29.03-.43.03Z"/>
          </g>
          <g>
            <polygon class="cls-4" points="10.58 133.69 9.49 134.61 6.72 131.36 7.81 130.43 10.58 133.69"/>
            <polygon class="cls-4" points=".3 134.78 -.79 135.71 -3.56 132.45 -2.46 131.53 .3 134.78"/>
            <polygon class="cls-4" points="2.23 127.63 1.22 126.62 4.24 123.6 5.25 124.61 2.23 127.63"/>
            <polygon class="cls-4" points="2.23 141.36 1.22 140.34 4.24 137.32 5.25 138.33 2.23 141.36"/>
            <polygon class="cls-4" points="3.72 160.32 2.54 160.32 2.54 150.58 3.72 150.58 3.72 160.32"/>
            <polygon class="cls-4" points="10.34 160.11 9.16 160.11 10.15 150.38 11.53 150.38 10.34 160.11"/>
            <polygon class="cls-4" points="-2.61 160.32 -4.01 160.32 -5.28 150.58 -3.77 150.58 -2.61 160.32"/>
            <polygon class="cls-4" points="14.83 139.4 13.82 138.39 16.84 135.37 17.86 136.38 14.83 139.4"/>
            <polygon class="cls-4" points="-10.31 138.55 -11.32 137.54 -8.3 134.52 -7.29 135.53 -10.31 138.55"/>
            <path class="cls-4" d="M-10.46,146.49h27.43l.15-.14c.24-.23,5.88-5.75,5.9-12.15,0-2.91-1.16-5.53-3.48-7.78-2.76-2.69-4.79-3.64-6.23-2.91-.5.25-.86.69-1.12,1.22-.66-3.79-2.6-7.83-9.06-7.53-3.47.16-6.18,1.54-8.06,4.11-.88,1.2-1.47,2.56-1.85,3.84-.13-.31-.3-.59-.55-.82-.47-.44-1.15-.64-2.01-.58-1.61.11-3.33,1.14-4.6,2.77-1.26,1.61-3.21,5.26-2.1,11.69.75,4.32,2,7.01,3.72,7.98.52.29.98.37,1.33.37.24,0,.42-.04.53-.07ZM-8.01,125.06c.55.51.55,1.71.55,2.88,0,.62,0,1.26.08,1.84.01.13.03.24.06.33l.97-.23c-.02-.1-.03-.19-.05-.3-.09-1.11.17-4.79,2.28-7.69,1.69-2.31,4.14-3.56,7.29-3.7,7.81-.37,8.16,6.12,8.39,10.4,0,.1.01.19.02.29.01.38.04.73.07,1,.02.24.04.45.07.65l.99-.15c-.19-1.32-.39-5.26,1.06-5.99.96-.49,2.76.48,5.08,2.74,2.11,2.06,3.18,4.43,3.17,7.06-.01,5.43-4.59,10.41-5.45,11.3H-10.53l-.17.03s-.5.16-1.16-.23c-.98-.58-2.33-2.31-3.19-7.26-1.05-6.04.74-9.42,1.9-10.9,1.1-1.4,2.55-2.29,3.88-2.39.08,0,.16,0,.24,0,.46,0,.8.1,1.02.32Z"/>
            <path class="cls-4" d="M13.27,165.48l4.11-19.98H-11.16l4.58,20.27,19.85-.29ZM16.16,146.49l-3.7,18-18.24.26-4.12-18.26h26.06Z"/>
          </g>
          <g>
            <polygon class="cls-4" points="280.67 185.41 281.12 185.03 265.22 166.07 264.78 166.44 280.67 185.41"/>
            <path class="cls-4" d="M279.65,194.2l5.71-4.79c1.75-1.46,1.98-4.08.51-5.83l-17.9-21.37c-.71-.85-1.71-1.37-2.81-1.46-1.1-.09-2.17.24-3.02.95l-5.71,4.79c-.85.71-1.37,1.71-1.46,2.81-.1,1.1.24,2.17.95,3.02l17.9,21.37c.71.85,1.71,1.37,2.81,1.46.12.01.25.02.37.02.97,0,1.9-.34,2.65-.97ZM265.1,161.51c.9.08,1.72.51,2.3,1.2l17.9,21.37c1.2,1.43,1.01,3.57-.42,4.77l-5.71,4.79c-.69.58-1.57.86-2.47.78-.9-.08-1.72-.51-2.3-1.2l-17.9-21.37c-.58-.69-.86-1.57-.78-2.47.08-.9.5-1.72,1.2-2.3l5.71-4.79c.62-.52,1.38-.79,2.17-.79.1,0,.2,0,.3.01Z"/>
            <path class="cls-4" d="M257.34,166.34c-.26-.21-6.29-5.25-6.13-8.98.05-1.02.53-1.85,1.44-2.47.94-.65,1.97-.83,3.07-.56,3.75.95,6.97,7.17,7.11,7.43l-.89.46c-.03-.06-3.15-6.08-6.47-6.92-.81-.21-1.55-.07-2.26.41-.64.44-.97.99-1,1.69-.12,2.68,4.12,6.8,5.76,8.16l-.64.77Z"/>
            <path class="cls-4" d="M287.32,202.15c-.14,0-.29-.01-.43-.03-3.74-.5-7.74-7.65-7.91-7.96l.88-.48c1.08,1.95,4.48,7.09,7.17,7.45.67.09,1.27-.13,1.8-.67.59-.6.85-1.31.8-2.16-.23-3.52-5.74-7.89-5.8-7.94l.62-.79c.24.19,5.92,4.7,6.18,8.66.07,1.13-.29,2.11-1.08,2.92-.65.66-1.39.99-2.21,1Z"/>
          </g>
          <g>
            <polygon class="cls-4" points="99.47 329.91 99.92 329.53 84.03 310.57 83.58 310.94 99.47 329.91"/>
            <path class="cls-4" d="M98.46,338.7l5.71-4.78c.85-.71,1.37-1.71,1.46-2.81.1-1.1-.24-2.17-.95-3.02l-17.9-21.37c-.71-.85-1.71-1.37-2.81-1.46-1.1-.09-2.17.24-3.02.95l-5.71,4.79c-.85.71-1.37,1.71-1.46,2.81-.1,1.1.24,2.17.95,3.02l17.9,21.37c.71.85,1.71,1.37,2.81,1.46.12.01.25.02.37.02.97,0,1.9-.34,2.65-.97ZM83.9,306.01c.9.08,1.72.51,2.3,1.2l17.9,21.37c.58.69.86,1.57.78,2.47-.08.9-.51,1.72-1.2,2.3l-5.71,4.78c-.69.58-1.57.85-2.47.78-.9-.08-1.72-.5-2.3-1.2l-17.9-21.37c-.58-.69-.86-1.57-.78-2.47.08-.9.5-1.72,1.2-2.3l5.71-4.79c.62-.52,1.38-.79,2.17-.79.1,0,.2,0,.3.01Z"/>
            <path class="cls-4" d="M76.14,310.84c-.26-.21-6.29-5.25-6.13-8.98.05-1.02.53-1.85,1.44-2.47.94-.65,1.98-.83,3.07-.56,3.75.95,6.97,7.17,7.11,7.43l-.89.46c-.03-.06-3.15-6.08-6.47-6.92-.82-.21-1.56-.07-2.26.41-.64.44-.97.99-1,1.69-.12,2.68,4.12,6.8,5.77,8.16l-.64.77Z"/>
            <path class="cls-4" d="M106.12,346.65c-.14,0-.29-.01-.43-.03-3.74-.5-7.74-7.65-7.91-7.96l.88-.48c1.08,1.95,4.48,7.09,7.17,7.45.68.09,1.27-.13,1.8-.67.59-.6.85-1.31.8-2.15-.23-3.52-5.75-7.89-5.8-7.94l.62-.79c.24.19,5.92,4.7,6.18,8.66.07,1.13-.29,2.11-1.08,2.92-.65.66-1.39,1-2.21,1Z"/>
          </g>
        </g>
      </g>
    </pattern>
  </defs>
  <!-- Generator: Adobe Illustrator 28.6.0, SVG Export Plug-In . SVG Version: 1.2.0 Build 709)  -->
  <g>
    <g id="Layer_1">
      <rect class="cls-1" x="944.09" y="327.97" width="360" height="360"/>
    </g>
    <g id="Layer_2">
      <rect class="cls-1" x="508.93" y="214.62" width="266.86" height="558.16"/>
      <rect class="cls-5" width="1224.3" height="792"/>
    </g>
  </g>
</svg>