<?xml version="1.0" encoding="UTF-8"?>
<svg xmlns="http://www.w3.org/2000/svg" version="1.1" viewBox="0 0 207.35 236.47">
  <defs>
    <style>
      .cls-1 {
        fill: #eaeaea;
      }

      .cls-2 {
        fill: #270e02;
      }

      .cls-3 {
        fill: #6e0d17;
      }
    </style>
  </defs>
  <!-- Generator: Adobe Illustrator 28.6.0, SVG Export Plug-In . SVG Version: 1.2.0 Build 709)  -->
  <g>
    <g id="Layer_1">
      <g>
        <path class="cls-2" d="M160.36,90.34s43.73,31.07,44.17,45.2.88,87.57-1.03,91.19-2.36,6.13-8.1,5.84c-5.74-.29-136.34-24.44-144.15-26.8-7.8-2.36-40.49-9.87-42.85-13.69s-5.15.15-6.04-27.39-1.03-64.34,0-71.71,3.98-15.02,14.43-16.93,12.22-15.46,17.82-15.31,11.63,1.91,14.13,0,1.33-10.75,10.9-11.04,10.75,2.06,14.72-1.47,1.47-10.01,11.63-11.19,16.15,5.3,17.28,10.31-1,5.3-1,5.3l15.67,7.66s-13.55,2.36-16.79,9.42-6.77,19.44-.59,26.8,9.72,18.11,27.53,17.37c17.82-.74,25.62-8.69,26.5-11.04s5.74-12.52,5.74-12.52Z"/>
        <path class="cls-3" d="M18.87,108.75s-5.74-1.03-6.04,10.75-3.39,16.93,6.04,20.02,68.17,18.55,86.72,22.23,90.99,18.4,92.76,15.31,3.98-32.69,0-35.19c-3.98-2.5-46.82-8.98-49.91-8.69-3.09.29-20.61-5.36-24-3.34s-4.42,10.85-11.93,8.94c-7.51-1.91-5.89-7.95-8.54-7.8s-9.57,6.92-11.34,9.57-9.57,6.33-13.99,3.68c-4.42-2.65-9.87-13.4-10.9-16.79s-4.42-10.16-11.04-9.72-15.61,1.33-18.7-1.33-6.18-6.04-19.14-7.66Z"/>
        <path class="cls-3" d="M195.7,192.97s-93.5-16.79-102.63-18.26-74.06-22.97-76.12-20.47-4.27,29.74,0,33.13,64.79,18.99,67.58,18.99,73.77,15.17,79.21,15.75,33.42,7.8,34.9,2.94c1.47-4.86,3.98-29.45-2.94-32.1Z"/>
        <path class="cls-1" d="M100.14,53.68s-2.8,14.87-22.97,12.66c-.88,4.86-3.83,13.1-22.23,12.52,0,0-3.98,13.99-20.91,11.04,0,0-8.1,10.31-16.2,7.95,8.69-3.98,15.75-12.52,15.31-14.72,0,0,4.12,4.71,10.31,1.62s10.75-14.28,10.75-14.28c0,0-.15,3.83,3.68,4.27s19.14-10.01,20.17-16.93c5.01,2.8,21.2-4.12,21.2-4.12"/>
        <path class="cls-1" d="M68.78,115.37s25.93,3.24,29.09,6.18-22.46.29-29.09-6.18Z"/>
        <path class="cls-1" d="M106.35,123.47s17.21.74,16.91,3.53-12.48,1.03-16.91-3.53Z"/>
        <path class="cls-3" d="M157.71,87.55c-4.05,12.34-11.93,22.09-27.83,22.09s-25.97-8.54-29.74-22.09c.88-22.97,10.75-26.36,26.65-26.36s30.04-3.53,30.92,26.36Z"/>
        <ellipse class="cls-1" cx="146.01" cy="73.12" rx="4.49" ry="5.3" transform="translate(-9.46 23.16) rotate(-8.79)"/>
        <path class="cls-1" d="M138.79,61.06c-7.63,1.4-5.4,3.92-11.43,2.9-2.4-.41-4.91,2.49-1.42,2.9s12.84-5.8,12.84-5.8"/>
        <path class="cls-3" d="M148.17,2.42c-6.48-.88-6.63,32.25-7.51,38.43s-7.34,20.16-7.78,20.45,3.98.09,5.26-.11c1.18-1.77,3.06-12.42,3.64-13.31s3.73-11.45,4.17-16.6-.88-16.93.29-19.58,5.89-6.77,5.15-8.25-3.24-1.03-3.24-1.03Z"/>
      </g>
    </g>
  </g>
</svg>