<svg width="272" height="235" viewBox="0 0 272 235" fill="none" xmlns="http://www.w3.org/2000/svg">
<path fill-rule="evenodd" clip-rule="evenodd" d="M163.745 1.5963C169.343 3.57143 172.333 9.86564 170.423 15.6548C144.364 94.6336 95.813 127.02 84.9869 134.242C84.4457 134.603 83.9987 134.901 83.6536 135.139C78.7316 138.532 72.0814 137.156 68.8001 132.067C65.5187 126.977 66.8487 120.101 71.7708 116.708C72.0878 116.489 72.5061 116.212 73.018 115.872C82.764 109.404 126.415 80.4336 150.149 8.50224C152.059 2.71306 158.146 -0.378833 163.745 1.5963Z" fill="#83D280"/>
<path fill-rule="evenodd" clip-rule="evenodd" d="M163.068 1C168.95 1 173.719 5.93527 173.719 12.0232C173.719 13.4665 173.633 14.7237 173.546 15.7441C173.498 16.3095 173.463 16.6835 173.433 16.9955C173.397 17.3741 173.369 17.6613 173.339 18.0884C173.27 19.0553 173.297 19.5169 173.436 20.1275L173.719 21.3729V22.6522C173.719 61.4202 178.843 87.056 184.614 103.346C190.484 119.916 196.767 126.163 198.464 127.354C199.577 128.136 200.656 128.987 201.476 129.633C201.56 129.699 201.641 129.763 201.719 129.824C202.665 130.568 203.316 131.069 203.91 131.468C204.321 131.744 204.586 131.889 204.731 131.961C210.436 132.169 215 137.021 215 142.977C215 149.065 210.231 154 204.349 154C199.058 154 194.94 151.728 192.301 149.953C190.967 149.056 189.742 148.095 188.825 147.374L188.668 147.25C187.736 146.517 187.111 146.025 186.502 145.597C179.768 140.868 171.343 129.933 164.613 110.935C157.848 91.8377 152.516 63.8673 152.418 23.779C151.911 20.8949 151.951 18.4791 152.094 16.4696C152.172 15.3751 152.24 14.6791 152.294 14.1343C152.37 13.3617 152.417 12.8931 152.417 12.0232C152.417 5.93527 157.185 1 163.068 1Z" fill="#83D280"/>
<path fill-rule="evenodd" clip-rule="evenodd" d="M153.708 3.72057C157.646 -0.851635 164.433 -1.26715 168.867 2.79249C177.511 10.7055 183.693 13.9608 188.268 15.1847C192.579 16.3383 196.416 15.9492 201.1 14.4624C206.768 12.6635 212.777 15.9424 214.522 21.7862C216.267 27.63 213.086 33.8256 207.419 35.6245C200.23 37.906 192.172 39.1047 182.874 36.617C173.839 34.1997 164.696 28.5847 154.609 19.3499C150.174 15.2903 149.771 8.29278 153.708 3.72057Z" fill="#83D280"/>
<path d="M135 170.5C135 203.913 108.137 231 75 231C41.8629 231 15 203.913 15 170.5C15 137.087 41.8629 110 75 110C108.137 110 135 137.087 135 170.5Z" fill="#A72525"/>
<path d="M257 174.5C257 207.913 230.137 235 197 235C163.863 235 137 207.913 137 174.5C137 141.087 163.863 114 197 114C230.137 114 257 141.087 257 174.5Z" fill="#A72525"/>
<path fill-rule="evenodd" clip-rule="evenodd" d="M4.39062 171.323C7.7315 170.209 11.3238 172.072 12.4142 175.485C12.4829 175.7 12.5463 175.916 12.5946 176.083C12.622 176.177 12.6425 176.248 12.6617 176.315C12.6858 176.399 12.7079 176.475 12.7385 176.58C12.7871 176.747 12.8302 176.89 12.8695 177.015C13.0097 177.167 13.1284 177.308 13.2245 177.426C13.5165 177.786 13.7501 178.13 13.8783 178.322C13.9443 178.421 14.0075 178.518 14.0518 178.585L14.0596 178.597C14.0876 178.64 14.1085 178.672 14.1254 178.698C14.9215 179.682 15.5696 180.891 15.7204 181.173C15.7351 181.2 15.745 181.219 15.75 181.227C15.8239 181.358 15.9019 181.463 16.0714 181.62C16.2993 181.832 16.6323 182.089 17.3435 182.584L13.7622 187.956L17.3435 182.584C18.4263 183.337 19.1435 183.772 19.6724 184.001C19.6848 184.001 19.6979 184.001 19.7118 184.001C19.8918 184 20.0931 183.992 20.4347 183.978L20.4704 183.977C20.7657 183.964 21.1959 183.946 21.6368 183.946C25.1511 183.946 28 186.856 28 190.445C28 194.035 25.1511 196.945 21.6368 196.945C21.4853 196.945 21.3024 196.952 20.9595 196.966L20.9187 196.968C20.6225 196.98 20.1963 196.998 19.7539 197C18.8617 197.003 17.3959 196.952 15.8211 196.405L17.8718 190.252L15.8211 196.405C13.472 195.588 11.4463 194.209 10.181 193.329C8.64472 192.26 6.38757 190.669 4.72191 187.715C4.67406 187.63 4.62758 187.547 4.5883 187.476C4.57862 187.458 4.56941 187.442 4.56054 187.426C4.53069 187.372 4.50468 187.325 4.47727 187.276C4.40759 187.151 4.35713 187.063 4.31487 186.992C4.30373 186.973 4.29428 186.958 4.28645 186.945C4.14293 186.771 4.02573 186.615 3.94 186.497C3.82886 186.344 3.73284 186.204 3.66186 186.098C3.62329 186.04 3.58559 185.983 3.55194 185.932C2.72692 185.153 2.22148 184.338 1.95034 183.859C1.51981 183.099 1.22199 182.349 1.02578 181.803C0.821005 181.233 0.657625 180.689 0.542593 180.295C0.483029 180.091 0.441935 179.948 0.410951 179.84C0.36674 179.686 0.34311 179.604 0.315762 179.518C-0.774638 176.106 1.04974 172.436 4.39062 171.323ZM14.1868 178.789C14.1869 178.789 14.1817 178.782 14.1707 178.766C14.1811 178.78 14.1866 178.788 14.1868 178.789Z" fill="#DD3232"/>
<path d="M132 168C132 200.033 105.809 226 73.5 226C41.1913 226 15 200.033 15 168C15 135.967 41.1913 110 73.5 110C105.809 110 132 135.967 132 168Z" fill="#DD3232"/>
<path d="M256 172C256 204.585 229.361 231 196.5 231C163.639 231 137 204.585 137 172C137 139.415 163.639 113 196.5 113C229.361 113 256 139.415 256 172Z" fill="#DD3232"/>
<path fill-rule="evenodd" clip-rule="evenodd" d="M90.4656 184.421C90.4579 184.428 90.4499 184.434 90.4416 184.441C90.4275 184.453 90.4095 184.469 90.3881 184.487C90.2368 184.617 89.9154 184.892 89.5893 185.114C89.185 185.39 88.4951 185.789 87.5765 185.897C85.8128 186.104 84.2208 184.79 84.0208 182.961C83.8459 181.362 84.7922 179.9 86.211 179.418C86.226 179.405 86.2419 179.392 86.2595 179.377C86.2923 179.349 86.3313 179.316 86.3823 179.273C86.3963 179.261 86.4117 179.248 86.4283 179.234C86.8244 178.897 87.9407 177.946 89.54 177.824C89.5592 177.819 89.6178 177.804 89.7312 177.763C89.8374 177.725 89.948 177.681 90.1191 177.613L90.1242 177.611C90.2804 177.55 90.4945 177.465 90.7213 177.386C91.6794 177.05 93.3517 176.629 95.2104 177.601C96.4571 178.252 97.7776 179.17 98.9262 180.275C100.05 181.355 101.19 182.789 101.802 184.517C102.414 186.244 101.56 188.16 99.8935 188.795C98.2273 189.429 96.3803 188.543 95.7682 186.816C95.6305 186.427 95.2564 185.837 94.5551 185.162C93.9818 184.611 93.3087 184.118 92.6623 183.744C92.5944 183.769 92.5153 183.8 92.4137 183.84C92.4027 183.845 92.3912 183.849 92.3794 183.854C92.2351 183.911 92.0403 183.988 91.8392 184.06C91.4951 184.184 91.0228 184.337 90.4656 184.421ZM90.6492 184.278C90.6551 184.274 90.6579 184.272 90.6579 184.272C90.6578 184.273 90.6549 184.275 90.6492 184.278Z" fill="black"/>
<path fill-rule="evenodd" clip-rule="evenodd" d="M52.4656 180.421C52.4579 180.428 52.4499 180.434 52.4416 180.441C52.4275 180.453 52.4095 180.469 52.3881 180.487C52.2368 180.617 51.9154 180.892 51.5893 181.114C51.185 181.39 50.4951 181.789 49.5765 181.897C47.8128 182.104 46.2208 180.79 46.0208 178.961C45.8459 177.362 46.7922 175.9 48.211 175.418C48.226 175.405 48.2419 175.392 48.2595 175.377C48.2923 175.349 48.3313 175.316 48.3823 175.273C48.3963 175.261 48.4117 175.248 48.4283 175.234C48.8244 174.897 49.9407 173.946 51.54 173.824C51.5592 173.819 51.6178 173.804 51.7312 173.763C51.8374 173.725 51.948 173.681 52.1191 173.613L52.1242 173.611C52.2804 173.55 52.4945 173.465 52.7213 173.386C53.6794 173.05 55.3517 172.629 57.2104 173.601C58.4571 174.252 59.7776 175.17 60.9262 176.275C62.0497 177.355 63.1897 178.789 63.8019 180.517C64.4141 182.244 63.5597 184.16 61.8935 184.795C60.2273 185.429 58.3803 184.543 57.7682 182.816C57.6305 182.427 57.2564 181.837 56.5551 181.162C55.9818 180.611 55.3087 180.118 54.6623 179.744C54.5944 179.769 54.5153 179.8 54.4137 179.84C54.4027 179.845 54.3912 179.849 54.3794 179.854C54.2351 179.911 54.0403 179.988 53.8392 180.06C53.4951 180.184 53.0228 180.337 52.4656 180.421ZM52.6492 180.278C52.6551 180.274 52.6579 180.272 52.6579 180.272C52.6578 180.273 52.6549 180.275 52.6492 180.278Z" fill="black"/>
<path d="M42.0145 188.396C41.754 189.753 39.6068 190.45 37.2186 189.952C34.8305 189.455 33.1057 187.951 33.3662 186.594C33.6268 185.237 35.7739 184.54 38.1621 185.038C40.5503 185.535 42.275 187.039 42.0145 188.396Z" fill="#F96D6F"/>
<path d="M108.361 197.077C108.301 198.459 106.28 199.488 103.847 199.374C101.414 199.26 99.4905 198.046 99.5502 196.664C99.6099 195.281 101.631 194.253 104.064 194.367C106.497 194.481 108.421 195.694 108.361 197.077Z" fill="#F96D6F"/>
<path fill-rule="evenodd" clip-rule="evenodd" d="M64.0101 192.049C64.0973 191.391 64.7232 190.926 65.408 191.01C65.7204 191.048 65.9414 191.183 66.0248 191.236C66.1261 191.301 66.2071 191.369 66.244 191.401C66.2633 191.417 66.2754 191.427 66.2835 191.434C66.5806 191.605 66.8414 191.803 67.0437 191.959C67.0821 191.988 67.1185 192.016 67.1531 192.043C67.3406 192.188 67.4777 192.294 67.6208 192.387C69.1746 193.387 71.1799 194.06 73.1008 194.388C75.3827 194.778 78.1313 194.641 80.232 193.886C80.581 193.761 80.918 193.626 81.1961 193.463C81.485 193.294 81.5945 193.162 81.6277 193.097C81.9319 192.502 82.6808 192.257 83.3005 192.549C83.9203 192.841 84.176 193.56 83.8718 194.155C83.5388 194.806 82.9725 195.235 82.4953 195.514C82.0072 195.799 81.4875 195.997 81.1087 196.134C78.5144 197.066 75.3008 197.202 72.663 196.751C70.4973 196.381 68.1419 195.612 66.2281 194.38C65.9848 194.223 65.749 194.04 65.5653 193.897C65.5347 193.873 65.5055 193.851 65.478 193.83C65.26 193.661 65.1076 193.552 64.9694 193.477C64.8951 193.437 64.8352 193.396 64.7937 193.366C64.7512 193.335 64.7151 193.306 64.689 193.285C64.6764 193.274 64.6643 193.264 64.6535 193.255C64.2138 193.026 63.9431 192.554 64.0101 192.049Z" fill="black"/>
<path fill-rule="evenodd" clip-rule="evenodd" d="M216.193 164.816C214.654 164.695 213.414 164.695 212.453 164.959C212.308 164.999 212.141 165.038 212.019 165.066C211.968 165.078 211.92 165.089 211.871 165.1C211.778 165.121 211.686 165.143 211.581 165.167C211.269 165.241 210.955 165.32 210.675 165.405C210.619 165.421 210.568 165.438 210.52 165.453C209.798 166.205 208.732 166.579 207.647 166.355C205.934 166 204.823 164.286 205.165 162.528C205.362 161.512 205.928 160.856 206.278 160.524C206.645 160.176 207.027 159.945 207.298 159.8C207.843 159.508 208.432 159.307 208.87 159.174C209.339 159.032 209.802 158.918 210.156 158.834C210.275 158.806 210.396 158.778 210.496 158.755C210.54 158.745 210.581 158.736 210.615 158.728C210.677 158.714 210.724 158.703 210.761 158.694C210.794 158.685 210.808 158.682 210.808 158.682C210.808 158.682 210.808 158.682 210.807 158.682C212.882 158.112 215.052 158.211 216.663 158.338C217.389 158.395 218.101 158.521 218.646 158.617L218.68 158.623C219.289 158.73 219.699 158.801 220.061 158.829C220.923 158.897 221.715 159.129 222.194 159.27C222.22 159.277 222.245 159.285 222.269 159.292C222.846 159.461 223.062 159.512 223.229 159.525C224.424 159.619 225.449 160.138 225.922 160.376C225.953 160.392 225.981 160.407 226.008 160.42C226.301 160.566 226.436 160.632 226.55 160.677C226.557 160.679 226.564 160.682 226.569 160.684C228.262 160.871 229.517 162.407 229.39 164.162C229.261 165.951 227.743 167.29 226.002 167.153C225.319 167.099 224.737 166.915 224.301 166.744C223.905 166.588 223.533 166.402 223.293 166.282C223.278 166.275 223.264 166.267 223.25 166.261C222.868 166.07 222.719 166.011 222.69 165.998C221.853 165.923 221.09 165.699 220.624 165.562C220.598 165.555 220.573 165.547 220.55 165.54C219.971 165.371 219.756 165.32 219.591 165.307C218.911 165.253 218.226 165.132 217.698 165.039C217.673 165.035 217.648 165.03 217.623 165.026C217.027 164.921 216.591 164.847 216.193 164.816Z" fill="black"/>
<path fill-rule="evenodd" clip-rule="evenodd" d="M172.995 168.792C171.472 169.061 170.268 169.372 169.396 169.869C169.265 169.944 169.111 170.024 169 170.081C168.954 170.106 168.909 170.129 168.864 170.152C168.779 170.196 168.695 170.239 168.598 170.29C168.312 170.44 168.026 170.595 167.774 170.747C167.723 170.778 167.677 170.807 167.634 170.834C167.107 171.744 166.159 172.374 165.055 172.428C163.311 172.513 161.837 171.127 161.762 169.334C161.719 168.298 162.118 167.519 162.381 167.109C162.656 166.68 162.973 166.36 163.203 166.151C163.665 165.731 164.19 165.388 164.585 165.149C165.006 164.894 165.43 164.667 165.753 164.498C165.863 164.44 165.974 164.383 166.066 164.336C166.106 164.315 166.143 164.296 166.175 164.279C166.231 164.25 166.274 164.227 166.308 164.209C166.339 164.193 166.352 164.186 166.352 164.186C166.352 164.186 166.351 164.186 166.351 164.186C168.233 163.113 170.362 162.666 171.954 162.385C172.672 162.258 173.392 162.202 173.943 162.159L173.977 162.156C174.593 162.108 175.008 162.073 175.365 162.01C176.218 161.86 177.04 161.887 177.537 161.903C177.564 161.904 177.59 161.905 177.615 161.906C178.214 161.925 178.436 161.921 178.601 161.892C179.782 161.684 180.897 161.93 181.411 162.043C181.445 162.05 181.476 162.057 181.504 162.063C181.823 162.132 181.969 162.162 182.09 162.177C182.098 162.178 182.105 162.178 182.111 162.179C183.797 161.936 185.37 163.113 185.652 164.849C185.939 166.618 184.776 168.299 183.055 168.602C182.38 168.721 181.773 168.689 181.31 168.632C180.89 168.58 180.486 168.492 180.225 168.436C180.209 168.432 180.194 168.429 180.179 168.426C179.763 168.336 179.605 168.317 179.574 168.311C178.745 168.448 177.952 168.422 177.468 168.406C177.441 168.405 177.416 168.404 177.391 168.404C176.791 168.384 176.57 168.388 176.406 168.417C175.733 168.536 175.041 168.59 174.507 168.632C174.481 168.634 174.456 168.636 174.431 168.638C173.829 168.685 173.389 168.723 172.995 168.792Z" fill="black"/>
<path fill-rule="evenodd" clip-rule="evenodd" d="M231.688 162.067C231.987 162.206 232.089 162.511 231.916 162.75C231.666 163.096 231.396 163.357 231.004 163.535C230.636 163.702 230.216 163.77 229.767 163.83C229.709 163.838 229.624 163.854 229.491 163.878L229.485 163.879C229.36 163.903 229.207 163.931 229.051 163.954C228.897 163.976 228.721 163.996 228.549 164C228.391 164.002 228.162 163.993 227.947 163.91C227.878 163.883 227.814 163.854 227.765 163.831C227.752 163.825 227.74 163.819 227.729 163.814C227.692 163.797 227.664 163.784 227.634 163.771C227.568 163.742 227.543 163.737 227.542 163.736C227.202 163.7 226.961 163.45 227.005 163.177C227.049 162.903 227.362 162.71 227.704 162.745C227.929 162.768 228.115 162.842 228.232 162.893C228.315 162.929 228.358 162.95 228.391 162.966C228.417 162.978 228.437 162.988 228.464 162.999C228.475 163 228.493 163 228.52 163C228.597 162.998 228.7 162.988 228.826 162.97C228.949 162.952 229.076 162.929 229.202 162.905C229.212 162.903 229.222 162.902 229.232 162.9C229.341 162.88 229.463 162.857 229.561 162.844C230.018 162.782 230.234 162.735 230.386 162.666C230.513 162.608 230.644 162.512 230.834 162.25C231.007 162.011 231.389 161.929 231.688 162.067Z" fill="black"/>
<path fill-rule="evenodd" clip-rule="evenodd" d="M229.661 160.04C229.922 160.173 230.062 160.599 229.973 160.992C229.895 161.338 229.737 161.624 229.575 161.846C229.407 162.074 229.203 162.275 228.986 162.44C228.556 162.769 228.02 163 227.5 163C227.224 163 227 162.664 227 162.25C227 161.836 227.224 161.5 227.5 161.5C227.837 161.5 228.218 161.344 228.533 161.104C228.688 160.985 228.814 160.856 228.903 160.735C228.996 160.607 229.023 160.525 229.027 160.509C229.115 160.117 229.399 159.907 229.661 160.04Z" fill="black"/>
<path fill-rule="evenodd" clip-rule="evenodd" d="M225 161C225 160.448 225.336 160 225.75 160H227.25C227.664 160 228 160.448 228 161C228 161.552 227.664 162 227.25 162H225.75C225.336 162 225 161.552 225 161Z" fill="black"/>
<path fill-rule="evenodd" clip-rule="evenodd" d="M162.5 168C162.776 168 163 168.336 163 168.75C163 169.474 162.863 170.096 162.561 170.516C162.259 170.935 161.874 171.041 161.537 170.987C161.202 170.934 160.874 170.723 160.61 170.422C160.348 170.123 160.112 169.693 160.017 169.159C159.946 168.759 160.104 168.348 160.371 168.241C160.637 168.134 160.912 168.371 160.983 168.771C161.007 168.903 161.08 169.074 161.215 169.228C161.349 169.38 161.507 169.474 161.642 169.495C161.774 169.516 161.845 169.466 161.881 169.415C161.917 169.366 162 169.205 162 168.75C162 168.336 162.224 168 162.5 168Z" fill="black"/>
<path fill-rule="evenodd" clip-rule="evenodd" d="M161 167.5C161 167.224 161.298 167 161.667 167H164.333C164.702 167 165 167.224 165 167.5C165 167.776 164.702 168 164.333 168H161.667C161.298 168 161 167.776 161 167.5Z" fill="black"/>
<path fill-rule="evenodd" clip-rule="evenodd" d="M162 166.5C162 166.224 162.298 166 162.667 166H165.333C165.702 166 166 166.224 166 166.5C166 166.776 165.702 167 165.333 167H162.667C162.298 167 162 166.776 162 166.5Z" fill="black"/>
<path fill-rule="evenodd" clip-rule="evenodd" d="M202.574 181.151C201.863 180.722 200.744 180.555 199.912 180.742C199.391 180.859 198.773 181.197 198.195 181.633C197.79 181.94 197.483 182.177 197.233 182.445C197.191 182.491 197.144 182.542 197.093 182.598C196.795 182.926 196.355 183.409 195.847 183.752C195.814 183.774 195.782 183.796 195.756 183.813L195.753 183.815C195.725 183.833 195.704 183.847 195.685 183.86C195.683 183.861 195.68 183.863 195.678 183.864C195.657 183.901 195.638 183.931 195.623 183.955C195.591 184.004 195.56 184.046 195.537 184.077C195.513 184.109 195.491 184.137 195.474 184.159L195.464 184.171C195.227 184.661 194.708 184.969 194.148 184.901C193.435 184.815 192.925 184.152 193.009 183.421C193.032 183.223 193.091 183.07 193.129 182.983C193.171 182.889 193.215 182.814 193.247 182.763C193.308 182.666 193.373 182.582 193.405 182.542C193.428 182.512 193.441 182.496 193.45 182.484C193.451 182.484 193.451 182.484 193.451 182.483C193.748 181.938 194.238 181.636 194.383 181.546C194.398 181.537 194.41 181.53 194.417 181.525C194.645 181.371 194.839 181.16 195.143 180.83C195.208 180.76 195.277 180.685 195.353 180.603C195.775 180.15 196.254 179.788 196.629 179.504C196.637 179.498 196.645 179.493 196.652 179.487C197.369 178.945 198.329 178.367 199.357 178.137C200.787 177.816 202.582 178.061 203.895 178.854C204.853 179.434 205.375 180.464 205.402 181.55C205.412 181.967 205.368 182.36 205.228 182.758C205.097 183.134 204.903 183.443 204.73 183.7C204.339 184.284 203.87 184.826 203.359 185.302C204.093 185.902 204.653 186.616 205.133 187.229C205.222 187.342 205.308 187.451 205.391 187.556C206.348 188.753 205.957 190.123 205.689 190.834C205.158 192.242 203.987 193.343 202.553 193.696C201.989 193.834 201.242 194.009 200.478 194C199.466 193.987 198.419 193.564 197.73 193.221C197.446 193.08 197.209 192.906 197.029 192.766C196.944 192.699 196.861 192.632 196.791 192.575L196.777 192.563C196.7 192.5 196.638 192.449 196.577 192.403C196.425 192.285 196.353 192.25 196.33 192.24C195.62 192.231 195.047 191.638 195.047 190.907C195.047 190.171 195.629 189.574 196.347 189.574C197.181 189.574 197.79 190.001 198.142 190.273C198.315 190.407 198.434 190.505 198.525 190.58C198.674 190.702 198.749 190.764 198.865 190.822C199.46 191.118 200.085 191.328 200.509 191.333C200.913 191.338 201.374 191.244 201.947 191.103C202.504 190.966 203.023 190.51 203.263 189.873C203.364 189.605 203.398 189.435 203.4 189.33C203.401 189.287 203.395 189.27 203.395 189.268L203.395 189.268C203.394 189.267 203.394 189.266 203.393 189.265C203.392 189.263 203.389 189.257 203.381 189.248C203.277 189.117 203.179 188.993 203.085 188.875C202.478 188.107 202.054 187.573 201.436 187.164C201.371 187.122 201.318 187.086 201.27 187.054C201.182 186.994 201.113 186.947 201.029 186.897C200.929 186.837 200.881 186.818 200.873 186.814C200.871 186.814 200.871 186.813 200.872 186.814C200.74 186.778 200.572 186.704 200.459 186.646C200.407 186.619 200.255 186.54 200.108 186.411C200.05 186.36 199.853 186.184 199.731 185.881C199.662 185.708 199.602 185.457 199.646 185.161C199.691 184.855 199.83 184.609 199.99 184.435C200.175 184.234 200.379 184.113 200.497 184.049C200.625 183.98 200.752 183.927 200.834 183.893C200.867 183.879 200.894 183.868 200.916 183.859C200.964 183.839 200.994 183.827 201.026 183.812C201.028 183.811 201.029 183.811 201.03 183.81C201.624 183.373 202.175 182.805 202.588 182.189C202.733 181.973 202.768 181.896 202.782 181.856L202.782 181.855C202.788 181.837 202.807 181.785 202.802 181.616C202.796 181.363 202.689 181.221 202.574 181.151ZM201.051 183.8C201.051 183.8 201.05 183.801 201.049 183.801C201.05 183.801 201.051 183.8 201.051 183.8ZM196.322 192.237C196.322 192.237 196.323 192.238 196.324 192.238L196.322 192.237Z" fill="black"/>
<path d="M173.216 182.794C173.24 185.995 169.044 188.623 163.845 188.665C158.645 188.706 154.411 186.145 154.388 182.944C154.364 179.743 158.56 177.114 163.759 177.073C168.959 177.031 173.193 179.593 173.216 182.794Z" fill="#FC2222"/>
<path d="M240.764 175.838C240.988 179.031 236.965 181.938 231.78 182.333C226.594 182.727 222.208 180.458 221.985 177.266C221.761 174.073 225.784 171.166 230.97 170.771C236.155 170.377 240.541 172.645 240.764 175.838Z" fill="#FC2222"/>
<path fill-rule="evenodd" clip-rule="evenodd" d="M265.654 160C269.159 160 272 162.841 272 166.346C272 168.497 271.42 170.569 271.122 171.631C271.076 171.796 271.037 171.936 271.007 172.049C269.774 176.788 267.694 181.748 263.368 185.841C258.543 190.405 251.987 193 245.346 193C241.841 193 239 190.159 239 186.654C239 183.149 241.841 180.308 245.346 180.308C248.761 180.308 252.19 178.943 254.646 176.62C256.603 174.769 257.82 172.328 258.724 168.854L264.865 170.451L258.724 168.854C258.794 168.585 258.874 168.291 258.94 168.046C258.967 167.947 258.992 167.856 259.013 167.777C259.097 167.464 259.158 167.228 259.205 167.02C259.297 166.613 259.308 166.432 259.308 166.346C259.308 162.841 262.149 160 265.654 160Z" fill="#DD3232"/>
</svg>
